<svg xmlns="http://www.w3.org/2000/svg" width="101" height="90" viewBox="0 0 101 90" fill="none"><path d="M9.06756 90C6.4827 90 4.32617 89.1337 2.59794 87.4012C0.869723 85.6687 0.00374074 83.505 0 80.91V25.965C0 23.3738 0.865982 21.2119 2.59794 19.4794C4.32991 17.7469 6.48457 16.8788 9.06194 16.875H33.6667V9.08438C33.6667 6.49688 34.5327 4.33501 36.2646 2.59876C37.9966 0.862511 40.1531 -0.00373788 42.7342 1.21229e-05H58.2714C60.8525 1.21229e-05 63.009 0.866261 64.741 2.59876C66.473 4.33126 67.3371 6.49313 67.3333 9.08438V16.875H91.9381C94.5192 16.875 96.6738 17.7431 98.4021 19.4794C100.13 21.2156 100.996 23.3775 101 25.965V80.9156C101 83.5031 100.134 85.665 98.4021 87.4012C96.6701 89.1375 94.5154 90.0037 91.9381 90H9.06756ZM39.2778 16.875H61.7222V9.08438C61.7222 8.22188 61.3631 7.42876 60.6449 6.70501C59.9267 5.98126 59.1355 5.62126 58.2714 5.62501H42.7286C41.8682 5.62501 41.0771 5.98501 40.3551 6.70501C39.6332 7.42501 39.274 8.21813 39.2778 9.08438V16.875ZM95.3889 59.0625H61.7222V67.5H39.2778V59.0625H5.61111V80.9156C5.61111 81.7781 5.97022 82.5712 6.68844 83.295C7.40667 84.0187 8.19783 84.3787 9.06194 84.375H91.9381C92.7984 84.375 93.5896 84.015 94.3116 83.295C95.0335 82.575 95.3926 81.78 95.3889 80.91V59.0625ZM44.8889 61.875H56.1111V50.625H44.8889V61.875ZM5.61111 53.4375H39.2778V45H61.7222V53.4375H95.3889V25.965C95.3889 25.0988 95.0298 24.3038 94.3116 23.58C93.5933 22.8563 92.8022 22.4963 91.9381 22.5H9.06194C8.20157 22.5 7.41041 22.86 6.68844 23.58C5.96648 24.3 5.60737 25.095 5.61111 25.965V53.4375Z" fill="#29A829"/></svg>