<svg width="65" height="54" viewBox="0 0 65 54" fill="none" xmlns="http://www.w3.org/2000/svg">
<path d="M40.4617 35.9406C41.2522 35.9406 41.93 35.3804 42.0736 34.6084C42.8938 30.1911 40.1127 26.961 36.8378 25.5025C34.1243 24.294 30.6353 24.0975 27.9413 25.6281C26.6201 24.5033 24.8518 24.0113 23.2337 24.0113C21.6042 24.0114 19.8229 24.5102 18.4989 25.6519C17.3735 25.0688 16.0987 24.8088 14.8782 24.8268C13.4302 24.8483 11.9176 25.2642 10.6877 26.1495C10.653 26.1401 10.6158 26.1301 10.5756 26.1193C5.76399 24.4618 0 27.5269 0 32.8184V34.3128C0 35.2118 0.733844 35.9406 1.63909 35.9406H40.4617ZM3.28297 32.6849C3.38774 30.176 6.42444 28.0834 9.5656 29.2145C9.6087 29.23 9.6526 29.2439 9.69686 29.2558C10.1317 29.3725 10.2682 29.4119 10.7117 29.5181L10.9214 29.5547C11.4125 29.6069 11.9063 29.4362 12.2595 29.0825C12.8621 28.4792 13.8353 28.0971 14.9278 28.081C16.0196 28.0649 17.0209 28.4172 17.6618 29.0078L17.8026 29.1255C18.1453 29.3768 18.5765 29.4865 19.0032 29.4275C19.4906 29.36 19.9224 29.079 20.178 28.6613C20.6777 27.8448 21.8222 27.2672 23.2337 27.2671C24.6456 27.2671 25.7913 27.8447 26.291 28.6613C26.5468 29.079 26.9783 29.3601 27.4659 29.4275C27.9536 29.4949 28.4464 29.3405 28.8073 29.0078C30.318 27.6159 33.0643 27.3891 35.4965 28.4721C37.4182 29.328 38.7421 30.8129 38.9155 32.6849H3.28297Z" fill="#29A829"/>
<path d="M10.4748 49.4216C11.38 49.4216 12.1139 48.6927 12.1139 47.7937C12.1139 46.8946 11.38 46.1658 10.4748 46.1658H3.27817V35.9407H38.9283V46.1658H19.5666C18.6613 46.1658 17.9275 46.8946 17.9275 47.7937C17.9275 48.6927 18.6613 49.4216 19.5666 49.4216H40.5674C41.4726 49.4216 42.2065 48.6927 42.2065 47.7937V34.3128C42.2065 33.4137 41.4726 32.6849 40.5674 32.6849H1.63909C0.733844 32.6849 0 33.4137 0 34.3128V47.7937C0 48.6927 0.733844 49.4216 1.63909 49.4216H10.4748Z" fill="#29A829"/>
<path d="M17.9275 47.8573C17.9275 49.4449 16.6193 50.7442 15.0207 50.7442C13.4221 50.7442 12.1139 49.4449 12.1139 47.8573C12.1139 46.2696 13.4221 44.9703 15.0207 44.9703C16.6193 44.9703 17.9275 46.2696 17.9275 47.8573ZM21.2057 47.8573C21.2057 44.4715 18.4298 41.7146 15.0207 41.7146C11.6116 41.7146 8.83571 44.4715 8.83571 47.8573C8.83571 51.2431 11.6116 54 15.0207 54C18.4298 54 21.2057 51.2431 21.2057 47.8573Z" fill="#29A829"/>
<path d="M4.11213 42.7447C5.01737 42.7447 5.75121 42.0159 5.75121 41.1168C5.75121 40.2178 5.01737 39.4889 4.11213 39.4889H3.43184C2.5266 39.4889 1.79276 40.2178 1.79276 41.1168C1.79276 42.0159 2.5266 42.7447 3.43184 42.7447H4.11213Z" fill="#29A829"/>
<path d="M47.4182 49.4216C48.3235 49.4216 49.0573 48.6927 49.0573 47.7937C49.0573 46.8946 48.3235 46.1658 47.4182 46.1658H42.2065V32.1253H57.9827C60.0396 32.1253 61.7218 33.7961 61.7218 35.8389V46.1658H56.51C55.6048 46.1658 54.871 46.8946 54.871 47.7937C54.871 48.6927 55.6048 49.4216 56.51 49.4216H63.3609C64.2662 49.4216 65 48.6927 65 47.7937V35.8389C65 31.9981 61.8502 28.8695 57.9827 28.8695H40.5674C39.6621 28.8695 38.9283 29.5984 38.9283 30.4974V47.7937C38.9283 48.6927 39.6621 49.4216 40.5674 49.4216H47.4182Z" fill="#29A829"/>
<path d="M56.0619 32.1253C56.5932 32.1253 57.0911 31.8691 57.3984 31.4385C57.7058 31.008 57.784 30.4565 57.6081 29.9585L53.6096 18.6396C53.3792 17.9874 52.7594 17.5507 52.0634 17.5506H40.5674C39.6621 17.5506 38.9283 18.2795 38.9283 19.1785V30.4974C38.9283 31.3965 39.6621 32.1253 40.5674 32.1253H56.0619ZM42.2065 20.8064H50.9013L53.7505 28.8695H42.2065V20.8064Z" fill="#29A829"/>
<path d="M54.871 47.8573C54.871 49.4449 53.5627 50.7442 51.9642 50.7442C50.3656 50.7442 49.0573 49.4449 49.0573 47.8573C49.0573 46.2696 50.3656 44.9703 51.9642 44.9703C53.5627 44.9703 54.871 46.2696 54.871 47.8573ZM58.1491 47.8573C58.1491 44.4715 55.3732 41.7146 51.9642 41.7146C48.5551 41.7146 45.7792 44.4715 45.7792 47.8573C45.7792 51.2431 48.5551 54 51.9642 54C55.3732 54 58.1491 51.2431 58.1491 47.8573Z" fill="#29A829"/>
<path d="M42.0688 9.49308C42.4479 10.3092 43.4222 10.6658 44.2441 10.2895C44.8915 9.99327 45.5961 9.83964 46.309 9.83964C47.0158 9.83967 47.7145 9.99009 48.3578 10.2816C49.1814 10.6549 50.1541 10.2951 50.53 9.47718C50.9058 8.65935 50.5434 7.69325 49.72 7.31992C48.6495 6.83464 47.4862 6.5839 46.309 6.58387C45.1222 6.58387 43.9486 6.83927 42.8707 7.33264C42.049 7.70912 41.69 8.67674 42.0688 9.49308Z" fill="#29A829"/>
<path d="M52.6556 5.14119C53.4123 5.63476 54.43 5.42527 54.927 4.67381C55.4235 3.92245 55.2127 2.91306 54.4564 2.41957C52.0365 0.84101 49.2041 0 46.309 0C43.4202 8.68329e-05 40.5943 0.837913 38.1776 2.41003C37.4203 2.90266 37.2078 3.91219 37.7038 4.66427C38.1998 5.41627 39.2163 5.62584 39.9735 5.13324C41.8564 3.9084 44.0583 3.25586 46.309 3.25577C48.5645 3.25577 50.7705 3.91159 52.6556 5.14119Z" fill="#29A829"/>
<path d="M44.6744 16.8258V18.7335C44.6744 19.6325 45.4083 20.3613 46.3135 20.3613C47.2188 20.3613 47.9526 19.6325 47.9526 18.7335V16.8258C47.9526 15.9267 47.2188 15.1979 46.3135 15.1979C45.4083 15.1979 44.6744 15.9267 44.6744 16.8258Z" fill="#29A829"/>
</svg>
