<svg width="66" height="65" viewBox="0 0 66 65" fill="none" xmlns="http://www.w3.org/2000/svg">
<path d="M62.6714 32.5V59.5193C62.6714 60.7357 61.6701 61.7218 60.435 61.7218H5.56501C4.32986 61.7218 3.32861 60.7357 3.32861 59.5193V32.5C3.32861 31.2836 4.32986 30.2975 5.56501 30.2975H18.4715C19.3907 30.2975 20.1358 29.5636 20.1358 28.6584C20.1358 27.7532 19.3907 27.0193 18.4715 27.0193H5.56501C2.49145 27.0193 0 29.4732 0 32.5V59.5193C0 62.5461 2.49145 65 5.56501 65H60.435C63.5084 65 66 62.5461 66 59.5193V32.5C66 29.4732 63.5084 27.0193 60.435 27.0193H24.1243C23.2051 27.0193 22.46 27.7532 22.46 28.6584C22.46 29.5636 23.2051 30.2975 24.1243 30.2975H60.435C61.6701 30.2975 62.6714 31.2837 62.6714 32.5Z" fill="#29A829"/>
<path d="M46.9388 40.1833C46.9388 41.3996 45.9374 42.3858 44.7024 42.3858C43.4673 42.3858 42.466 41.3996 42.466 40.1833C42.466 38.9669 43.4673 37.9808 44.7024 37.9808C45.9374 37.9808 46.9388 38.9669 46.9388 40.1833ZM50.2674 40.1833C50.2674 37.1564 47.7758 34.7026 44.7024 34.7026C41.629 34.7026 39.1374 37.1564 39.1374 40.1833C39.1374 43.2101 41.629 45.664 44.7024 45.664C47.7758 45.664 50.2674 43.2101 50.2674 40.1833Z" fill="#29A829"/>
<path d="M43.0378 44.0248V54.0386H34.6643V44.0248C34.6643 43.1196 33.9191 42.3858 33 42.3857H11.13V37.9807H21.2979C22.217 37.9807 22.9622 37.2468 22.9622 36.3416C22.9622 35.4364 22.217 34.7025 21.2979 34.7025H9.46572C8.54655 34.7025 7.80142 35.4364 7.80142 36.3416V44.0248C7.80142 44.9301 8.54655 45.6639 9.46572 45.6639H31.3357V55.6777C31.3357 56.5829 32.0808 57.3168 33 57.3168H44.7021C45.6213 57.3168 46.3664 56.5829 46.3664 55.6777V44.0248C46.3664 43.1196 45.6215 42.3858 44.7024 42.3858C43.7832 42.3858 43.0378 43.1196 43.0378 44.0248Z" fill="#29A829"/>
<path d="M31.3357 13.1639C31.3357 16.9809 28.8695 20.0691 25.8568 23.7187C24.2808 25.628 22.538 27.7113 21.2979 30.0734C20.0577 27.7113 18.3149 25.628 16.7389 23.7187C13.7263 20.0691 11.26 16.9809 11.26 13.1639C11.26 7.71398 15.7641 3.27817 21.2979 3.27817C26.8316 3.27817 31.3357 7.71398 31.3357 13.1639ZM34.6643 13.1639C34.6643 5.9035 28.67 0 21.2979 0C13.9258 4.23685e-07 7.93144 5.9035 7.93144 13.1639C7.93144 18.3482 11.3163 22.3483 14.1547 25.7868C17.1674 29.4364 19.6336 32.5246 19.6336 36.3416C19.6336 37.2468 20.3787 37.9807 21.2979 37.9807C22.217 37.9807 22.9622 37.2468 22.9622 36.3416C22.9622 32.5246 25.4284 29.4364 28.441 25.7868C31.2794 22.3483 34.6643 18.3482 34.6643 13.1639Z" fill="#29A829"/>
<path d="M23.531 13.1639C23.531 14.3803 22.5297 15.3664 21.2946 15.3664C20.0596 15.3664 19.0582 14.3803 19.0582 13.1639C19.0582 11.9476 20.0596 10.9614 21.2946 10.9614C22.5297 10.9614 23.531 11.9476 23.531 13.1639ZM26.8596 13.1639C26.8596 10.1371 24.368 7.68322 21.2946 7.68322C18.2212 7.68322 15.7296 10.1371 15.7296 13.1639C15.7296 16.1907 18.2212 18.6446 21.2946 18.6446C24.368 18.6446 26.8596 16.1907 26.8596 13.1639Z" fill="#29A829"/>
<path d="M54.87 44.0248V47.8664C54.87 48.7717 55.6151 49.5055 56.5343 49.5055C57.4534 49.5055 58.1986 48.7717 58.1986 47.8664V44.0248C58.1986 43.1196 57.4534 42.3857 56.5343 42.3857C55.6151 42.3857 54.87 43.1196 54.87 44.0248Z" fill="#29A829"/>
</svg>
