<svg width="65" height="65" viewBox="0 0 65 65" fill="none" xmlns="http://www.w3.org/2000/svg">
<path d="M30.8544 47.9945C30.8544 55.5759 24.6842 61.7218 17.0728 61.7218C9.46141 61.7218 3.29114 55.5759 3.29114 47.9945C3.29114 40.4131 9.46141 34.2671 17.0728 34.2671C24.6842 34.2671 30.8544 40.4131 30.8544 47.9945ZM34.1456 47.9945C34.1456 38.6026 26.5018 30.989 17.0728 30.989C7.64377 30.989 0 38.6026 0 47.9945C8.48167e-07 57.3863 7.64377 65 17.0728 65C26.5018 65 34.1456 57.3863 34.1456 47.9945Z" fill="#29A829"/>
<path d="M61.7089 59.5193C61.7089 60.7357 60.7188 61.7218 59.4976 61.7218H17.0728C16.164 61.7218 15.4272 62.4557 15.4272 63.3609C15.4272 64.2662 16.164 65 17.0728 65H59.4976C62.5364 65 65 62.5461 65 59.5193V14.4444C64.9999 14.0099 64.8264 13.5929 64.5179 13.2856L51.6619 0.480201C51.3533 0.172971 50.9347 0 50.4984 0H20.9296C17.8908 0 15.4272 2.45386 15.4272 5.48069V32.6281C15.4272 33.5333 16.164 34.2671 17.0728 34.2671C17.9816 34.2671 18.7184 33.5333 18.7184 32.6281V5.48069C18.7184 4.26434 19.7084 3.27817 20.9296 3.27817H49.817L61.7089 15.1231V59.5193Z" fill="#29A829"/>
<path d="M63.3544 16.0835C64.0199 16.0835 64.6199 15.6843 64.8747 15.0719C65.1294 14.4594 64.9885 13.7543 64.5179 13.2856L51.6619 0.480201C51.1913 0.0114252 50.4834 -0.128848 49.8685 0.124852C49.2537 0.378602 48.8528 0.976214 48.8528 1.63909V14.4444C48.8528 15.3497 49.5896 16.0835 50.4984 16.0835H63.3544ZM52.144 5.59594L59.3819 12.8054H52.144V5.59594Z" fill="#29A829"/>
<path d="M54.3568 38.1087C55.2657 38.1087 56.0024 37.3749 56.0024 36.4697C56.0024 35.5644 55.2657 34.8306 54.3568 34.8306H27.2772C26.3684 34.8306 25.6317 35.5644 25.6317 36.4697C25.6317 37.3749 26.3684 38.1087 27.2772 38.1087H54.3568Z" fill="#29A829"/>
<path d="M54.3552 26.5839C55.264 26.5839 56.0008 25.8501 56.0008 24.9448C56.0008 24.0396 55.264 23.3058 54.3552 23.3058H26.072C25.1632 23.3058 24.4264 24.0396 24.4264 24.9448C24.4264 25.8501 25.1632 26.5839 26.072 26.5839H54.3552Z" fill="#29A829"/>
<path d="M54.3551 49.6336C55.2639 49.6336 56.0006 48.8998 56.0006 47.9945C56.0006 47.0893 55.2639 46.3554 54.3551 46.3554H32.4998C31.591 46.3554 30.8544 47.0892 30.8544 47.9945C30.8544 48.8997 31.591 49.6336 32.4998 49.6336H54.3551Z" fill="#29A829"/>
<path d="M13.2096 54.6598C13.8523 55.2999 14.8939 55.2999 15.5366 54.6598C16.1792 54.0197 16.1792 52.9821 15.5366 52.342L11.6798 48.5004C11.0371 47.8603 9.99545 47.8603 9.35281 48.5004C8.71018 49.1405 8.71018 50.178 9.35281 50.8181L13.2096 54.6598Z" fill="#29A829"/>
<path d="M13.2096 54.6598C13.8523 55.2999 14.8939 55.2999 15.5366 54.6598L24.5357 45.6959C25.1783 45.0558 25.1783 44.0183 24.5357 43.3782C23.8931 42.738 22.8514 42.738 22.2088 43.3782L13.2096 52.3419C12.5669 52.982 12.567 54.0197 13.2096 54.6598Z" fill="#29A829"/>
</svg>
