<svg width="65" height="65" viewBox="0 0 65 65" fill="none" xmlns="http://www.w3.org/2000/svg">
<path d="M32.5003 29.2855C30.7251 29.2855 29.286 30.7247 29.286 32.4998C29.286 34.2749 30.7251 35.7141 32.5003 35.7141C34.2754 35.7141 35.7145 34.2749 35.7145 32.4998C35.7145 30.7247 34.2754 29.2855 32.5003 29.2855ZM32.5003 29.2855L32.5 20.2858M32.5 15.143V11.2858M32.5 11.2858C20.7837 11.2858 11.2855 20.7838 11.2855 32.5002M32.5 11.2858C44.2163 11.2858 53.7145 20.7837 53.7145 32.5M44.7736 20.2266L47.5009 17.4993M49.8573 32.5H53.7145M53.7145 32.5C53.7145 38.3583 51.3396 43.6619 47.5004 47.501L44.7731 44.7737M20.2264 44.7737L17.499 47.501C13.6599 43.6619 11.2855 38.3584 11.2855 32.5002M11.2855 32.5002L15.1426 32.5M20.2266 20.2266L17.4992 17.4993M39.5715 52.4286H25.4286M1 32.5C1 15.1032 15.103 1 32.5 1C49.897 1 64 15.1032 64 32.5C64 49.8968 49.897 64 32.5 64C15.103 64 1 49.8968 1 32.5ZM6.14436 32.5001C6.14436 17.9435 17.945 6.14294 32.5015 6.14294C47.0581 6.14294 58.8587 17.9435 58.8587 32.5001C58.8587 47.0567 47.0581 58.8573 32.5015 58.8573C17.945 58.8573 6.14436 47.0567 6.14436 32.5001ZM39.5715 47.2857H25.4286V40.8573H39.5715V47.2857Z" stroke="#29A829" stroke-width="2" stroke-miterlimit="10" stroke-linecap="round" stroke-linejoin="round"/>
</svg>
