<svg width="64" height="65" viewBox="0 0 64 65" fill="none" xmlns="http://www.w3.org/2000/svg">
<path d="M46.8167 18.1295C46.8167 26.3216 40.183 32.9627 32 32.9627C23.817 32.9627 17.1833 26.3216 17.1833 18.1295C17.1833 9.93737 23.817 3.29627 32 3.29627C40.183 3.29627 46.8167 9.93737 46.8167 18.1295ZM50.1093 18.1295C50.1093 8.11689 42.0014 0 32 0C21.9986 0 13.8907 8.11689 13.8907 18.1295C13.8907 28.142 21.9986 36.2589 32 36.2589C42.0014 36.2589 50.1093 28.142 50.1093 18.1295Z" fill="#29A829"/>
<path d="M26.2058 64.9983C26.2058 61.7982 28.797 59.204 31.9936 59.204C35.1901 59.204 37.7813 61.7982 37.7813 64.9983H26.2058Z" fill="#29A829"/>
<path d="M17.1833 65C17.1833 56.8079 23.817 50.1668 32 50.1668C40.183 50.1668 46.8167 56.8079 46.8167 65H50.1093C50.1093 54.9874 42.0014 46.8705 32 46.8705C21.9986 46.8705 13.8907 54.9874 13.8907 65H17.1833Z" fill="#29A829"/>
<path d="M3.2926 64.9983C3.2926 49.126 16.1454 36.2589 32 36.2589C47.8546 36.2589 60.7074 49.126 60.7074 64.9983H64C64 47.3055 49.6731 32.9627 32 32.9627C14.3269 32.9627 0 47.3055 0 64.9983H3.2926Z" fill="#29A829"/>
<path d="M30.463 61.1301L22.553 53.2113L20.225 55.5419L28.135 63.4606L30.463 61.1301Z" fill="#29A829"/>
<path d="M43.7749 55.5427L41.4469 53.2121L33.4084 61.2596L35.7363 63.5902L43.7749 55.5427Z" fill="#29A829"/>
</svg>
