<svg width="65" height="65" viewBox="0 0 65 65" fill="none" xmlns="http://www.w3.org/2000/svg">
<path d="M41.8223 65V0H0V65H41.8223ZM3.27817 3.27817H38.5441V61.7218H3.27817V3.27817Z" fill="#29A829"/>
<path d="M34.1391 26.3278V7.68322H7.81127V26.3278H34.1391ZM11.0894 10.9614H30.8609V23.0496H11.0894V10.9614Z" fill="#29A829"/>
<path d="M40.1832 34.011V30.7329H1.63909V34.011H40.1832Z" fill="#29A829"/>
<path d="M27.0193 47.8664C27.0193 51.2045 24.3132 53.9106 20.9752 53.9106C17.6371 53.9106 14.931 51.2045 14.931 47.8664C14.931 44.5284 17.6371 41.8223 20.9752 41.8223C24.3132 41.8223 27.0193 44.5284 27.0193 47.8664ZM30.2975 47.8664C30.2975 42.7179 26.1237 38.5441 20.9752 38.5441C15.8266 38.5441 11.6529 42.7179 11.6529 47.8664C11.6529 53.015 15.8266 57.1887 20.9752 57.1887C26.1237 57.1887 30.2975 53.015 30.2975 47.8664Z" fill="#29A829"/>
<path d="M22.6143 49.7872V45.9456H19.3361V49.7872H22.6143Z" fill="#29A829"/>
<path d="M26.4559 18.9263V15.0847H23.1777V18.9263H26.4559Z" fill="#29A829"/>
<path d="M18.7727 18.9263V15.0847H15.4945V18.9263H18.7727Z" fill="#29A829"/>
<path d="M65 10.9614V0H59.3913C56.3645 0 53.9106 2.4537 53.9106 5.48069V10.9614H65ZM57.1887 5.48069C57.1887 4.26425 58.1749 3.27817 59.3913 3.27817H61.7218V7.68322H57.1887V5.48069Z" fill="#29A829"/>
<path d="M65 34.011V23.0496H59.3913C56.3645 23.0496 53.9106 25.5033 53.9106 28.5303V34.011H65ZM57.1887 28.5303C57.1887 27.3139 58.1749 26.3278 59.3913 26.3278H61.7218V30.7329H57.1887V28.5303Z" fill="#29A829"/>
<path d="M53.9106 59.5193C53.9106 60.7357 52.9244 61.7218 51.708 61.7218C50.4917 61.7218 49.5055 60.7357 49.5055 59.5193V13.1639C49.5055 10.1369 47.0516 7.68322 44.0248 7.68322H40.1832V10.9614H44.0248C45.2412 10.9614 46.2273 11.9475 46.2273 13.1639V59.5193C46.2273 62.5463 48.6812 65 51.708 65C54.7348 65 57.1887 62.5463 57.1887 59.5193V9.3223H53.9106V59.5193Z" fill="#29A829"/>
</svg>
