<svg width="40" height="40" viewBox="0 0 40 40" fill="none" xmlns="http://www.w3.org/2000/svg">
<path d="M30.5474 26.938C30.5474 32.847 25.7377 37.6567 19.8286 37.6567C13.9196 37.6567 9.10987 32.847 9.10987 26.938C9.10987 21.0289 13.9196 16.2192 19.8286 16.2192C25.7377 16.2192 30.5474 21.0289 30.5474 26.938ZM32.5474 26.938C32.5474 19.9244 26.8422 14.2192 19.8286 14.2192C12.815 14.2192 7.10987 19.9244 7.10987 26.938C7.10987 33.9516 12.815 39.6567 19.8286 39.6567C26.8422 39.6567 32.5474 33.9516 32.5474 26.938Z" fill="#29A829"/>
<path d="M18.8276 32.396C18.8276 32.9483 19.2754 33.396 19.8276 33.396C20.3799 33.3959 20.8276 32.9482 20.8276 32.396C20.8276 31.418 21.2162 30.4801 21.9077 29.7886C23.8424 27.8539 26.4665 26.7671 29.2026 26.7671H31.311C31.8631 26.767 32.3109 26.3192 32.311 25.7671C32.311 25.2149 31.8632 24.7672 31.311 24.7671H29.2026C25.9361 24.7671 22.8035 26.0647 20.4937 28.3745C20.2452 28.623 20.0227 28.8925 19.8267 29.1782C19.6307 28.8929 19.4098 28.6227 19.1616 28.3745C16.8518 26.0646 13.7191 24.7671 10.4526 24.7671H8.34424C7.79196 24.7671 7.34424 25.2148 7.34424 25.7671C7.34437 26.3193 7.79204 26.7671 8.34424 26.7671H10.4526C13.1887 26.7671 15.8129 27.8538 17.7476 29.7886C18.4391 30.4801 18.8276 31.4181 18.8276 32.396Z" fill="#29A829"/>
<path d="M31.4897 26.7661C32.042 26.7661 32.4897 26.3184 32.4897 25.7661C32.4897 25.2139 32.042 24.7662 31.4897 24.7661C28.15 24.7661 26.5332 24.2124 25.1753 23.6665C23.7342 23.0872 22.3921 22.4224 19.8286 22.4224C17.2656 22.4224 15.9239 23.0872 14.4829 23.6665C13.1251 24.2123 11.5083 24.7661 8.16846 24.7661C7.61618 24.7661 7.16846 25.2138 7.16846 25.7661C7.16846 26.3184 7.61618 26.7661 8.16846 26.7661C11.8017 26.7661 13.6717 26.148 15.229 25.522C16.7029 24.9295 17.7049 24.4224 19.8286 24.4224C21.9527 24.4224 22.9553 24.9295 24.4292 25.522C25.9865 26.148 27.8566 26.7661 31.4897 26.7661Z" fill="#29A829"/>
<path d="M18.8286 31.6255V38.6567C18.8286 39.209 19.2763 39.6567 19.8286 39.6567C20.3809 39.6567 20.8286 39.209 20.8286 38.6567V31.6255C20.8286 31.0732 20.3809 30.6255 19.8286 30.6255C19.2763 30.6255 18.8286 31.0732 18.8286 31.6255Z" fill="#29A829"/>
<path d="M24.0689 11.27C24.4538 11.4625 24.9188 11.3869 25.2231 11.0825C25.5275 10.7782 25.6031 10.3132 25.4106 9.92823L20.7231 0.553227C20.5538 0.214443 20.2074 0.000492708 19.8286 0.000492708C19.4498 0.000492888 19.1035 0.214443 18.9341 0.553227L14.2466 9.92823C14.0541 10.3132 14.1297 10.7782 14.4341 11.0825C14.7384 11.3869 15.2034 11.4625 15.5884 11.27L19.8286 9.14991L24.0689 11.27ZM20.2759 7.13721C19.9944 6.99645 19.6629 6.99645 19.3814 7.13721L17.3774 8.13916L19.8286 3.23682L22.2798 8.13916L20.2759 7.13721Z" fill="#29A829"/>
<path d="M0.626469 25.3657C1.13863 25.5722 1.72166 25.3242 1.92823 24.812L11.3814 1.37452C11.5878 0.862356 11.3398 0.279323 10.8276 0.0727588C10.3155 -0.133725 9.73245 0.114322 9.52588 0.62647L0.0727582 24.064C-0.133725 24.5761 0.114323 25.1592 0.626469 25.3657Z" fill="#29A829"/>
<path d="M37.7289 24.8121C37.9355 25.3243 38.5185 25.5723 39.0307 25.3658C39.5428 25.1593 39.7909 24.5762 39.5844 24.0641L30.1313 0.62656C29.9247 0.114413 29.3417 -0.133634 28.8295 0.0728495C28.3174 0.279414 28.0693 0.862447 28.2758 1.37461L37.7289 24.8121Z" fill="#29A829"/>
</svg>
