<svg width="42" height="54" viewBox="0 0 42 54" fill="none" xmlns="http://www.w3.org/2000/svg">
<path d="M41 0C41.5523 0 42 0.447715 42 1V40.5215C41.9999 41.0737 41.5522 41.5215 41 41.5215H32.9346C32.3825 41.5213 31.9347 41.0736 31.9346 40.5215C31.9346 39.9693 32.3824 39.5217 32.9346 39.5215H40V2H2V39.5215H8.52148C9.07377 39.5215 9.52148 39.9692 9.52148 40.5215C9.5214 41.0737 9.07372 41.5215 8.52148 41.5215H1C0.447767 41.5215 8.45168e-05 41.0737 0 40.5215V1C0 0.447715 0.447715 0 1 0H41Z" fill="#29A829"/>
<path d="M25.7666 0.000488281C26.3189 0.000488281 26.7666 0.448204 26.7666 1.00049V13.0952C26.7666 13.4446 26.5848 13.7694 26.2861 13.9507C25.9875 14.1319 25.6156 14.1441 25.3057 13.9829L21.0088 11.7466L16.8701 13.9761C16.5603 14.143 16.185 14.135 15.8828 13.9546C15.5806 13.7741 15.3955 13.4472 15.3955 13.0952V1.00049C15.3955 0.448204 15.8432 0.000488281 16.3955 0.000488281H25.7666ZM17.3955 11.4204L20.5264 9.73486L20.6387 9.68311C20.9051 9.57947 21.2058 9.59421 21.4629 9.72803L24.7666 11.4468V2.00049H17.3955V11.4204Z" fill="#29A829"/>
<path d="M32.4785 27.9155C30.0438 27.598 27.9719 26.1413 26.8096 24.1001H15.1924C14.03 26.1416 11.9575 27.598 9.52246 27.9155V36.4019C9.52249 39.3843 10.3061 41.771 11.7061 43.7915C13.1175 45.8285 15.1928 47.5466 17.8545 49.1167L21 50.9722L24.1475 49.1167C26.8091 47.5465 28.8845 45.8286 30.2959 43.7915C31.6958 41.771 32.4785 39.3843 32.4785 36.4019V27.9155ZM34.4785 36.4019C34.4785 39.7676 33.5843 42.5562 31.9395 44.9302C30.306 47.2877 27.9693 49.1839 25.1631 50.8394L21.5088 52.9946C21.1953 53.1796 20.8057 53.1795 20.4922 52.9946L16.8379 50.8394C14.0317 49.184 11.6949 47.2877 10.0615 44.9302C8.4168 42.5562 7.52249 39.7675 7.52246 36.4019V27.8608C7.52246 26.9004 8.23254 26.0592 9.21484 25.9399C11.1975 25.699 12.8687 24.4313 13.6758 22.6812L13.7451 22.5542C13.9278 22.2735 14.2427 22.1001 14.584 22.1001H27.418L27.5625 22.1108C27.8938 22.1592 28.1833 22.3713 28.3262 22.6812C29.1333 24.4314 30.8043 25.6991 32.7871 25.9399C33.7692 26.0593 34.4785 26.9005 34.4785 27.8608V36.4019Z" fill="#29A829"/>
<path d="M24.9892 33.8285C25.3797 33.4381 26.0128 33.438 26.4032 33.8285C26.7936 34.219 26.7936 34.852 26.4032 35.2425L20.2411 41.4047C19.8506 41.7951 19.2176 41.7951 18.8271 41.4047L15.5995 38.1781C15.209 37.7876 15.209 37.1536 15.5995 36.7631C15.99 36.3728 16.6231 36.3728 17.0136 36.7631L19.5341 39.2836L24.9892 33.8285Z" fill="#29A829"/>
</svg>
