<svg width="42" height="49" viewBox="0 0 42 49" fill="none" xmlns="http://www.w3.org/2000/svg">
<path d="M33.6533 0L41.1631 7.50977V42.9551H19.6924V41.9551H40.1631V7.92383L33.2393 1H9.37598V30.9824H8.37598V0H33.6533Z" fill="#29A829"/>
<path d="M33.9453 0.5V7.2168H40.6621V8.2168H32.9453V0.5H33.9453Z" fill="#29A829"/>
<path d="M12.7568 39.6802C12.7568 37.5546 11.0337 35.8316 8.9082 35.8315C6.78269 35.8315 5.05957 37.5546 5.05957 39.6802C5.05957 41.8057 6.78269 43.5288 8.9082 43.5288C11.0337 43.5288 12.7568 41.8057 12.7568 39.6802ZM13.7568 39.6802C13.7568 42.358 11.586 44.5288 8.9082 44.5288C6.2304 44.5288 4.05957 42.358 4.05957 39.6802C4.05957 37.0024 6.2304 34.8315 8.9082 34.8315C11.586 34.8316 13.7568 37.0024 13.7568 39.6802Z" fill="#29A829"/>
<path d="M15.624 39.6797C15.624 38.9729 15.5145 38.2925 15.3125 37.6533L15.2012 37.3018L15.5039 37.0918L16.4727 36.418L15.4893 34.7148L14.0801 35.3809L13.8311 35.1123C12.9225 34.1333 11.7263 33.4272 10.3779 33.126L10.0186 33.0459L9.89062 31.4824H7.92383L7.82324 32.6807L7.79297 33.0459L7.43457 33.127C6.08535 33.4289 4.88898 34.1359 3.98047 35.1162L3.73145 35.3848L2.31445 34.7148L1.33105 36.418L2.30859 37.0977L2.61133 37.3076L2.5 37.6582C2.29897 38.2959 2.19044 38.9746 2.19043 39.6797C2.19043 40.3708 2.29499 41.0366 2.48828 41.6631L2.5957 42.0137L1.3252 42.8926L2.30859 44.5957L3.36816 44.0967L3.70117 43.9404L3.9502 44.2119C4.80586 45.1471 5.92234 45.838 7.18359 46.1719L7.4375 46.2334L7.7959 46.3135L7.82617 46.6797L7.92383 47.8369H9.89062L10.0166 46.3145L10.376 46.2344C11.7401 45.9301 12.9488 45.2118 13.8613 44.2158L14.1094 43.9443L14.4424 44.1006L15.4941 44.5957L16.4775 42.8926L15.5176 42.2266L15.2168 42.0186L15.3252 41.668C15.5194 41.0401 15.624 40.3726 15.624 39.6797ZM16.624 39.6797C16.624 40.3451 16.5376 40.9907 16.3789 41.6074L17.8047 42.5957L16.1309 45.4941L15.9014 45.8926L15.4854 45.6963L14.3398 45.1572C13.4116 46.0778 12.2508 46.7631 10.9521 47.1191L10.8486 48.3789L10.8115 48.8369H7.00391L6.96582 48.3789L6.85938 47.1191C5.56023 46.7624 4.39892 46.0758 3.4707 45.1543L1.90332 45.8926L1.67383 45.4941L0 42.5957L0.37793 42.333L1.43262 41.6016C1.27493 40.9868 1.19043 40.3429 1.19043 39.6797C1.19044 39.0009 1.27932 38.3426 1.44434 37.7148L0.00488281 36.7148L1.90918 33.418L3.50488 34.1719C4.42652 33.2679 5.57424 32.5939 6.85645 32.2412L7.00391 30.4824H10.8115L10.8486 30.9414L10.9551 32.2402C12.2364 32.5921 13.3831 33.2655 14.3047 34.168L15.8955 33.418L17.5693 36.3164L17.7988 36.7148L16.3672 37.709C16.5332 38.3385 16.624 38.9986 16.624 39.6797Z" fill="#29A829"/>
<path d="M23.8076 4.42627V8.31299H20.416V7.31299H22.8076V5.42627H13.7041V7.31299H16.0859V8.31299H12.7041V4.42627H23.8076Z" fill="#29A829"/>
<path d="M18.9736 7.31348V8.31348H17.5391V7.31348H18.9736Z" fill="#29A829"/>
<path d="M25.4629 11.6592V12.6592H12.4727V11.6592H25.4629Z" fill="#29A829"/>
<path d="M37.0107 14.5439V15.5439H12.4727V14.5439H37.0107Z" fill="#29A829"/>
<path d="M37.0107 17.4272V18.4272H12.4727V17.4272H37.0107Z" fill="#29A829"/>
<path d="M25.4629 21.7402V22.7402H12.4727V21.7402H25.4629Z" fill="#29A829"/>
<path d="M37.0107 24.6416V25.6416H12.4727V24.6416H37.0107Z" fill="#29A829"/>
<path d="M37.0107 27.5156V28.5156H12.4727V27.5156H37.0107Z" fill="#29A829"/>
<path d="M32.4678 31.8913C32.972 31.8398 33.4144 32.0418 33.7305 32.3776C34.0467 32.7137 34.2377 33.1785 34.291 33.6764C34.3992 34.6876 33.9519 35.8942 32.7158 36.7643C32.397 36.9887 32.0761 37.1847 31.7559 37.3581L31.8623 37.3932L31.873 37.3961L31.8838 37.4C32.8788 37.7184 33.9628 37.7583 34.9785 37.5143L35.2129 38.487C34.0263 38.7721 32.7641 38.726 31.6006 38.3581C31.2438 38.2615 30.9047 38.1019 30.6055 37.8854C28.5178 38.6775 26.4985 38.6129 24.9199 38.6129V37.6129C26.4207 37.6129 28.1231 37.655 29.8623 37.0875C29.7831 36.9579 29.7137 36.8203 29.6562 36.6745L29.5762 36.4821C28.8202 34.4797 30.2201 32.0139 32.4678 31.8913ZM32.5566 32.8854L32.5391 32.8874L32.5225 32.8883C30.9618 32.9735 29.9094 34.8151 30.5664 36.2594L30.5732 36.2741L30.5791 36.2897C30.6375 36.4431 30.72 36.5832 30.8184 36.7116C31.2594 36.5063 31.7015 36.256 32.1406 35.9469C33.0981 35.273 33.3641 34.411 33.2969 33.7829C33.2624 33.4615 33.1433 33.2134 33.002 33.0631C32.8675 32.9204 32.7176 32.8654 32.5566 32.8854Z" fill="#29A829"/>
</svg>
