<svg width="44" height="44" viewBox="0 0 44 44" fill="none" xmlns="http://www.w3.org/2000/svg">
<path d="M41.8238 22C41.8238 32.9483 32.9484 41.8238 22 41.8238C11.0516 41.8238 2.1762 32.9483 2.1762 22C2.1762 11.0517 11.0516 2.1762 22 2.1762C32.9484 2.1762 41.8238 11.0517 41.8238 22ZM44 22C44 9.84983 34.1503 0 22 0C9.84974 0 0 9.84983 0 22C0 34.1502 9.84974 44 22 44C34.1503 44 44 34.1502 44 22Z" fill="#29A829"/>
<path d="M36.4173 22C36.4173 29.9624 29.9625 36.4173 22 36.4173C14.0375 36.4173 7.58269 29.9624 7.58269 22C7.58269 14.0376 14.0375 7.58269 22 7.58269C29.9625 7.58269 36.4173 14.0376 36.4173 22ZM38 22C38 13.1635 30.8366 6 22 6C13.1634 6 6 13.1635 6 22C6 30.8365 13.1634 38 22 38C30.8366 38 38 30.8365 38 22Z" fill="#29A829"/>
<path d="M31.9119 22C31.9119 27.4741 27.4742 31.9119 22 31.9119C16.5258 31.9119 12.0881 27.4741 12.0881 22C12.0881 16.5259 16.5258 12.0881 22 12.0881C27.4742 12.0881 31.9119 16.5259 31.9119 22ZM33 22C33 15.9249 28.0751 11 22 11C15.9249 11 11 15.9249 11 22C11 28.0751 15.9249 33 22 33C28.0751 33 33 28.0751 33 22Z" fill="#29A829"/>
</svg>
