<svg width="40" height="40" viewBox="0 0 40 40" fill="none" xmlns="http://www.w3.org/2000/svg">
<path d="M12.4929 38.7322C13.3455 39.4198 14.6001 39.3705 15.3953 38.5847L17.0701 36.9295L17.2205 36.7654C17.9229 35.9153 17.8723 34.6571 17.0701 33.865L16.4295 33.2312C17.1 31.4396 17.098 29.4617 16.4275 27.6707L27.0066 17.2166C27.3781 16.8493 27.4047 16.2579 27.0672 15.8591C26.5753 15.2783 26.0247 14.6806 25.4109 14.074C24.7971 13.4674 24.1924 12.9236 23.6053 12.4373C23.2096 12.1096 22.6299 12.1349 22.2644 12.4959L11.6756 22.9607C9.85897 22.2921 7.85181 22.2905 6.03494 22.9597L5.38357 22.3152C4.53515 21.4769 3.16559 21.4774 2.31717 22.3142L2.31619 22.3152L0.641385 23.9705C-0.213671 24.8156 -0.214244 26.1908 0.642361 27.0359L1.28103 27.6687C0.217864 30.5097 0.839568 33.8275 3.14724 36.1082C5.45728 38.3901 8.81075 38.9974 11.6775 37.9422L12.3279 38.5847L12.4929 38.7322ZM13.7937 37.2009L13.7342 37.1629L12.6111 36.0525C12.3124 35.7573 11.861 35.6799 11.4812 35.8591C9.2151 36.9286 6.42367 36.5328 4.55349 34.6853C2.68615 32.8398 2.29119 30.0943 3.36697 27.8689C3.55299 27.484 3.47367 27.024 3.1697 26.7234L2.04763 25.6131L2.04666 25.6121C1.98456 25.5508 1.98407 25.4562 2.04763 25.3933L3.72146 23.7381L3.78201 23.699C3.8478 23.6734 3.92685 23.6864 3.9783 23.7371L5.10135 24.8474C5.40006 25.1424 5.85158 25.219 6.23123 25.0398C7.88454 24.259 9.82581 24.26 11.4812 25.0408L11.6267 25.0965C11.9714 25.1974 12.349 25.1055 12.6101 24.8474L23.0125 14.5681C23.3379 14.8582 23.6702 15.1664 24.0047 15.4968C24.3328 15.8211 24.6391 16.1432 24.9275 16.4588L14.5418 26.7234C14.2375 27.0241 14.1583 27.4848 14.3445 27.8699C15.1311 29.4967 15.1311 31.4038 14.3445 33.031C14.1586 33.416 14.2377 33.8769 14.5418 34.1775L15.6648 35.2869L15.6658 35.2879C15.7277 35.3494 15.7278 35.4442 15.6658 35.5056L15.6648 35.5066L13.99 37.1629C13.9383 37.2139 13.8591 37.2263 13.7937 37.2009Z" fill="#29A829"/>
<path d="M6.61109 32.9279C7.92864 34.1049 9.95908 34.066 11.2293 32.8107C12.5467 31.5086 12.5468 29.3921 11.2293 28.09C9.95912 26.8348 7.92864 26.7959 6.61109 27.9728L6.48609 28.09C5.16837 29.3921 5.16837 31.5086 6.48609 32.8107L6.61109 32.9279ZM9.823 31.3879C9.29109 31.9135 8.42429 31.9135 7.89234 31.3879C7.36694 30.8687 7.36694 30.0321 7.89234 29.5129L7.99585 29.4201C8.53137 28.9892 9.32444 29.0202 9.823 29.5129C10.3484 30.0321 10.3483 30.8687 9.823 31.3879Z" fill="#29A829"/>
<path d="M28.1395 20.9618C29.1543 22.915 31.7865 23.32 33.3495 21.7743L33.3485 21.7733L39.2313 15.9608C39.4213 15.773 39.5291 15.517 39.5292 15.2499C39.5292 14.9826 39.4214 14.7258 39.2313 14.538L24.9393 0.414926C24.5498 0.0301667 23.9236 0.030223 23.534 0.414926L17.6512 6.22743C16.0737 7.78645 16.4998 10.4081 18.4706 11.4081C19.5475 11.9544 20.8759 12.7699 22.3299 13.9755C22.8723 14.4248 23.4338 14.9298 24.0057 15.495C24.5778 16.0603 25.0884 16.6148 25.5419 17.1503L25.5428 17.1513C26.7622 18.5868 27.5874 19.8983 28.1395 20.9618ZM31.9432 20.3524C31.3709 20.9185 30.4305 20.8083 29.994 20.1737L29.9139 20.0399C29.2957 18.8491 28.3873 17.4115 27.0663 15.8563L27.0653 15.8573C26.5738 15.2769 26.0242 14.6801 25.4109 14.074C24.797 13.4673 24.1925 12.9218 23.6053 12.4354C22.0315 11.1306 20.5784 10.234 19.3758 9.62391C18.6109 9.23569 18.4601 8.2406 19.0575 7.65028L24.2362 2.53309L37.1053 15.2499L31.9432 20.3524Z" fill="#29A829"/>
<path d="M37.8264 15.9615C38.0849 16.217 38.4621 16.3127 38.8108 16.2106C39.1596 16.1083 39.4255 15.8241 39.5051 15.4694L38.5295 15.2506C39.5052 15.4697 39.506 15.4689 39.5061 15.4684C39.5063 15.4675 39.5068 15.4655 39.5071 15.4645C39.5075 15.4625 39.5075 15.4602 39.508 15.4576C39.5092 15.4522 39.5103 15.4452 39.512 15.4371C39.5153 15.4211 39.5197 15.3999 39.5246 15.3737C39.5345 15.3209 39.5472 15.2476 39.5608 15.1559C39.588 14.9724 39.6194 14.7132 39.6389 14.3903C39.6778 13.7446 39.6707 12.8388 39.4944 11.7692C39.14 9.61983 38.1029 6.82869 35.4231 4.1803C32.744 1.53236 29.9232 0.509614 27.7551 0.160768C26.6756 -0.0129127 25.7618 -0.0192101 25.1106 0.0191662C24.7847 0.0383734 24.5229 0.069523 24.3381 0.0963146C24.2459 0.109688 24.1723 0.121765 24.1194 0.131471C24.0931 0.136293 24.0719 0.140931 24.0559 0.144166C24.0478 0.145792 24.0408 0.146935 24.0354 0.148072C24.0328 0.148609 24.0305 0.148631 24.0286 0.149049C24.0276 0.14926 24.0264 0.149847 24.0256 0.150026C24.0251 0.150146 24.0233 0.150788 24.2375 1.12756L24.0237 0.151002C23.6656 0.229537 23.3785 0.497161 23.2766 0.849244C23.1747 1.20123 23.2738 1.58088 23.5344 1.8385L37.8264 15.9615ZM26.5774 2.03381C26.8455 2.05505 27.1336 2.08644 27.4377 2.13538C29.2559 2.42795 31.6766 3.28817 34.0178 5.60217C36.3589 7.91574 37.2266 10.3045 37.5217 12.0944C37.5717 12.3978 37.6038 12.6848 37.6252 12.9518L26.5774 2.03381Z" fill="#29A829"/>
<path d="M28.0449 12.6447C28.6579 12.6447 29.2452 12.112 29.2168 11.4866C29.1884 10.8591 28.7019 10.3285 28.0449 10.3285C27.432 10.3285 26.8447 10.8611 26.8731 11.4866C26.9015 12.114 27.388 12.6447 28.0449 12.6447Z" fill="#29A829"/>
</svg>
