<svg width="36" height="41" viewBox="0 0 36 41" fill="none" xmlns="http://www.w3.org/2000/svg">
<path d="M26.3018 25.1133C26.3018 25.2035 26.2529 25.2869 26.1748 25.332L18.0342 30.0322C17.9755 30.0661 17.9065 30.0745 17.8428 30.0576L17.7812 30.0322L9.63965 25.332C9.56162 25.2868 9.51367 25.2033 9.51367 25.1133V15.7129C9.51367 15.6227 9.56173 15.5392 9.63965 15.4941L17.7812 10.7939C17.8593 10.7489 17.9561 10.7489 18.0342 10.7939L26.1748 15.4941C26.2525 15.5392 26.3018 15.6227 26.3018 15.7129V25.1133ZM28.3018 15.7129C28.3018 14.9083 27.872 14.1641 27.1748 13.7617L19.0342 9.06152C18.3373 8.65911 17.4782 8.65911 16.7812 9.06152L8.63965 13.7617C7.94296 14.1641 7.51367 14.9084 7.51367 15.7129V25.1133C7.51367 25.918 7.9428 26.6621 8.63965 27.0645L16.7812 31.7646C17.4781 32.1669 18.3373 32.1668 19.0342 31.7646L27.1748 27.0645C27.8719 26.662 28.3018 25.9179 28.3018 25.1133V15.7129Z" fill="#29A829"/>
<path d="M17.5273 21.3389C17.8117 21.4561 18.1375 21.4365 18.4082 21.2803L25.1797 17.3711C25.6579 17.095 25.8219 16.4831 25.5459 16.0049C25.2698 15.5266 24.658 15.3626 24.1797 15.6387L17.9082 19.2598L9.38867 14.3408C8.91046 14.0647 8.29867 14.2279 8.02246 14.7061C7.74634 15.1843 7.91046 15.7961 8.38867 16.0723L17.4082 21.2803L17.5273 21.3389Z" fill="#29A829"/>
<path d="M16.9082 20.4141V31.0605C16.9082 31.6128 17.3559 32.0605 17.9082 32.0605C18.4605 32.0605 18.9082 31.6128 18.9082 31.0605V20.4141C18.9082 19.8618 18.4605 19.4141 17.9082 19.4141C17.3559 19.4141 16.9082 19.8618 16.9082 20.4141Z" fill="#29A829"/>
<path d="M18.7871 2.87891C18.7871 3.36414 18.3935 3.75773 17.9082 3.75781C17.4228 3.75781 17.0293 3.36428 17.0293 2.87891C17.0294 2.39361 17.4229 2 17.9082 2C18.3935 2.00008 18.787 2.39374 18.7871 2.87891ZM20.7871 2.87891C20.787 1.28901 19.4979 8.4315e-05 17.9082 0C16.3183 0 15.0294 1.28904 15.0293 2.87891C15.0293 4.46885 16.3183 5.75781 17.9082 5.75781C19.4979 5.75773 20.7871 4.46888 20.7871 2.87891Z" fill="#29A829"/>
<path d="M33.8164 11.6465C33.8164 12.1317 33.4228 12.5253 32.9375 12.5254C32.4522 12.5254 32.0586 12.1318 32.0586 11.6465C32.0587 11.1612 32.4523 10.7676 32.9375 10.7676C33.4227 10.7677 33.8163 11.1612 33.8164 11.6465ZM35.8164 11.6465C35.8163 10.0567 34.5273 8.76766 32.9375 8.76758C31.3477 8.76758 30.0587 10.0566 30.0586 11.6465C30.0586 13.2363 31.3476 14.5254 32.9375 14.5254C34.5273 14.5253 35.8164 13.2363 35.8164 11.6465Z" fill="#29A829"/>
<path d="M33.8164 29.1816C33.8164 29.667 33.4228 30.0605 32.9375 30.0605C32.4522 30.0605 32.0586 29.667 32.0586 29.1816C32.0586 28.6964 32.4522 28.3027 32.9375 28.3027C33.4228 28.3028 33.8164 28.6965 33.8164 29.1816ZM35.8164 29.1816C35.8164 27.5918 34.5273 26.3028 32.9375 26.3027C31.3477 26.3027 30.0586 27.5918 30.0586 29.1816C30.0586 30.7716 31.3476 32.0605 32.9375 32.0605C34.5274 32.0605 35.8164 30.7715 35.8164 29.1816Z" fill="#29A829"/>
<path d="M18.7871 37.9492C18.7871 38.4345 18.3935 38.828 17.9082 38.8281C17.4228 38.8281 17.0293 38.4346 17.0293 37.9492C17.0294 37.4639 17.4229 37.0703 17.9082 37.0703C18.3935 37.0704 18.787 37.4641 18.7871 37.9492ZM20.7871 37.9492C20.787 36.3593 19.4979 35.0704 17.9082 35.0703C16.3183 35.0703 15.0294 36.3593 15.0293 37.9492C15.0293 39.5392 16.3183 40.8281 17.9082 40.8281C19.4979 40.828 20.7871 39.5392 20.7871 37.9492Z" fill="#29A829"/>
<path d="M3.75781 29.1816C3.75781 29.667 3.36414 30.0605 2.87891 30.0605C2.39353 30.0605 2 29.667 2 29.1816C2.00004 28.6964 2.39353 28.3027 2.87891 28.3027C3.36414 28.3028 3.75777 28.6964 3.75781 29.1816ZM5.75781 29.1816C5.75777 27.5918 4.46871 26.3028 2.87891 26.3027C1.28902 26.3027 4.21352e-05 27.5918 0 29.1816C0 30.7716 1.28897 32.0605 2.87891 32.0605C4.46876 32.0605 5.75781 30.7715 5.75781 29.1816Z" fill="#29A829"/>
<path d="M3.75781 11.6465C3.75781 12.1318 3.36416 12.5253 2.87891 12.5254C2.39351 12.5254 2 12.1318 2 11.6465C2.00008 11.1612 2.39359 10.7676 2.87891 10.7676C3.36408 10.7676 3.75773 11.1612 3.75781 11.6465ZM5.75781 11.6465C5.75773 10.0567 4.46871 8.76762 2.87891 8.76758C1.28902 8.76758 8.43287e-05 10.0566 0 11.6465C0 13.2364 1.28899 14.5254 2.87891 14.5254C4.46873 14.5253 5.75781 13.2363 5.75781 11.6465Z" fill="#29A829"/>
<path d="M5.76465 9.89062C6.04077 10.3689 6.65258 10.5329 7.13086 10.2568L14.6143 5.93555C15.0924 5.65943 15.2564 5.04855 14.9805 4.57031C14.7043 4.09202 14.0926 3.92796 13.6143 4.2041L6.13086 8.52441C5.65259 8.80054 5.48857 9.41234 5.76465 9.89062Z" fill="#29A829"/>
<path d="M28.6846 10.2568C29.1629 10.533 29.7746 10.3689 30.0508 9.89062C30.3269 9.41234 30.1629 8.80055 29.6846 8.52441L22.2012 4.2041C21.7229 3.92796 21.1111 4.09202 20.835 4.57031C20.5591 5.04849 20.7231 5.65941 21.2012 5.93555L28.6846 10.2568Z" fill="#29A829"/>
<path d="M32.0938 16.0234V24.8066C32.0938 25.3589 32.5415 25.8066 33.0938 25.8066C33.646 25.8066 34.0938 25.3589 34.0938 24.8066V16.0234C34.0938 15.4712 33.646 15.0234 33.0938 15.0234C32.5415 15.0234 32.0938 15.4712 32.0938 16.0234Z" fill="#29A829"/>
<path d="M20.835 36.2598C21.1111 36.738 21.7229 36.9021 22.2012 36.626L29.6846 32.3047C30.1627 32.0286 30.3267 31.4177 30.0508 30.9395C29.7746 30.4612 29.1629 30.2971 28.6846 30.5732L21.2012 34.8936C20.7229 35.1697 20.5589 35.7815 20.835 36.2598Z" fill="#29A829"/>
<path d="M13.6143 36.626C14.0925 36.9021 14.7043 36.7381 14.9805 36.2598C15.2566 35.7815 15.0925 35.1697 14.6143 34.8936L7.13086 30.5732C6.65257 30.2971 6.04079 30.4612 5.76465 30.9395C5.4888 31.4176 5.65283 32.0285 6.13086 32.3047L13.6143 36.626Z" fill="#29A829"/>
<path d="M1.72266 16.0234V24.8066C1.72266 25.3589 2.17037 25.8066 2.72266 25.8066C3.27494 25.8066 3.72266 25.3589 3.72266 24.8066V16.0234C3.72266 15.4712 3.27494 15.0234 2.72266 15.0234C2.17037 15.0234 1.72266 15.4712 1.72266 16.0234Z" fill="#29A829"/>
<path d="M12.2441 21.0586C12.2441 21.6109 12.6919 22.0586 13.2441 22.0586C13.7964 22.0586 14.2441 21.6109 14.2441 21.0586V18.2803L23.1143 13.1553C23.5923 12.8789 23.7557 12.2672 23.4795 11.7891C23.2032 11.3109 22.5915 11.1476 22.1133 11.4238L12.7441 16.8359C12.4349 17.0146 12.2442 17.345 12.2441 17.7021V21.0586Z" fill="#29A829"/>
</svg>
