<svg width="41" height="41" viewBox="0 0 41 41" fill="none" xmlns="http://www.w3.org/2000/svg">
<path d="M31.8355 22.1616V18.8677C31.8355 18.7238 31.8328 18.5833 31.8267 18.4448C31.8145 18.1691 32.0285 17.9347 32.3042 17.9224C32.5799 17.9102 32.8143 18.1242 32.8267 18.3999C32.8336 18.5567 32.8355 18.713 32.8355 18.8677V22.1616C32.8352 22.4376 32.6115 22.6616 32.3355 22.6616C32.0595 22.6615 31.8357 22.4375 31.8355 22.1616Z" fill="#29A829"/>
<path d="M8.16406 22.1616V18.8677C8.16406 12.0543 13.6877 6.53076 20.501 6.53076C21.3274 6.53077 22.1347 6.61237 22.916 6.76807C23.1868 6.82202 23.3624 7.08521 23.3086 7.35596C23.2546 7.62677 22.9915 7.80251 22.7207 7.74854C22.0033 7.60557 21.2614 7.53077 20.501 7.53076C14.24 7.53076 9.16406 12.6066 9.16406 18.8677V22.1616C9.16406 22.4378 8.9402 22.6616 8.66406 22.6616C8.38792 22.6616 8.16407 22.4378 8.16406 22.1616Z" fill="#29A829"/>
<path d="M35.1025 22.1611V18.8672C35.1025 18.425 35.0828 17.9867 35.0449 17.5537C35.0208 17.2787 35.2241 17.036 35.499 17.0117C35.774 16.9876 36.0167 17.1909 36.041 17.4658C36.0814 17.9273 36.1025 18.3952 36.1025 18.8672V22.1611C36.1025 22.4373 35.8787 22.6611 35.6025 22.6611C35.3264 22.6611 35.1025 22.4373 35.1025 22.1611Z" fill="#29A829"/>
<path d="M4.89746 22.1616V18.8677C4.89746 14.56 6.6447 10.6577 9.46777 7.83545C12.29 5.01247 16.1923 3.26514 20.5 3.26514C21.8307 3.26518 23.1232 3.43193 24.3574 3.74658C24.6248 3.81497 24.786 4.08753 24.7178 4.35498C24.6495 4.62231 24.3778 4.78332 24.1104 4.71533C22.9563 4.42111 21.7468 4.26518 20.5 4.26514C16.4682 4.26514 12.8171 5.89942 10.1748 8.54248C7.5317 11.1848 5.89746 14.8358 5.89746 18.8677V22.1616C5.89729 22.4376 5.6735 22.6616 5.39746 22.6616C5.12142 22.6616 4.89763 22.4376 4.89746 22.1616Z" fill="#29A829"/>
<path d="M9.79492 24.9902C9.79492 23.4631 8.55738 22.2248 7.03027 22.2246C5.50308 22.2246 4.26465 23.4629 4.26465 24.9902V31.5205C4.26465 33.0477 5.50301 34.2861 7.03027 34.2861C8.55741 34.286 9.79499 33.0477 9.79492 31.5205V24.9902ZM10.7949 31.5205C10.795 33.6 9.10967 35.286 7.03027 35.2861C4.9507 35.2861 3.26465 33.6 3.26465 31.5205V24.9902C3.26465 22.9107 4.9508 21.2246 7.03027 21.2246C9.10969 21.2248 10.7949 22.9109 10.7949 24.9902V31.5205Z" fill="#29A829"/>
<path d="M0 28.2563C0 26.1768 1.68615 24.4907 3.76562 24.4907C4.04161 24.4909 4.26562 24.7147 4.26562 24.9907C4.26562 25.2668 4.04161 25.4905 3.76562 25.4907C2.23843 25.4907 1 26.7291 1 28.2563C1.00016 29.7834 2.23853 31.021 3.76562 31.021C4.04149 31.0212 4.26542 31.2451 4.26562 31.521C4.26562 31.797 4.04161 32.0208 3.76562 32.021C1.68624 32.021 0.000161445 30.3357 0 28.2563Z" fill="#29A829"/>
<path d="M36.7354 24.9902C36.7354 23.4631 35.4977 22.2248 33.9707 22.2246C32.4434 22.2246 31.2051 23.463 31.2051 24.9902V31.5205C31.2051 33.0478 32.4435 34.2861 33.9707 34.2861C35.4978 34.286 36.7354 33.0476 36.7354 31.5205V24.9902ZM37.7354 31.5205C37.7354 33.5999 36.0501 35.286 33.9707 35.2861C31.8912 35.2861 30.2051 33.6001 30.2051 31.5205V24.9902C30.2051 22.9107 31.8911 21.2246 33.9707 21.2246C36.05 21.2248 37.7354 22.9108 37.7354 24.9902V31.5205Z" fill="#29A829"/>
<path d="M40 28.2563C40 26.7291 38.7616 25.4907 37.2344 25.4907C36.9582 25.4907 36.7344 25.2669 36.7344 24.9907C36.7344 24.7146 36.9582 24.4907 37.2344 24.4907C39.3139 24.4907 41 26.1768 41 28.2563C40.9998 30.3357 39.3138 32.021 37.2344 32.021C36.9582 32.021 36.7344 31.7971 36.7344 31.521C36.7346 31.245 36.9584 31.021 37.2344 31.021C38.7615 31.021 39.9998 29.7834 40 28.2563Z" fill="#29A829"/>
<path d="M11.8369 10.2959C11.8369 10.0198 12.0608 9.7959 12.3369 9.7959C12.6131 9.7959 12.8369 10.0198 12.8369 10.2959V12.6631C15.1363 11.324 17.7535 10.6124 20.4248 10.6123H20.5752C21.3206 10.6123 22.0622 10.6675 22.7939 10.7773C23.067 10.8183 23.2549 11.0726 23.2139 11.3457C23.1728 11.6187 22.9185 11.8066 22.6455 11.7656C21.9635 11.6633 21.2714 11.6123 20.5752 11.6123H20.4248C17.6453 11.6124 14.9272 12.4356 12.6143 13.9775C12.4608 14.0797 12.2631 14.0889 12.1006 14.002C11.9383 13.9149 11.837 13.7457 11.8369 13.5615V10.2959Z" fill="#29A829"/>
<path d="M33.4688 34.7861C33.4688 34.51 33.6926 34.2862 33.9688 34.2861C34.2449 34.2861 34.4688 34.51 34.4688 34.7861C34.4688 37.3165 32.4171 39.3682 29.8867 39.3682H24.1729C23.8968 39.3682 23.673 39.1441 23.6729 38.8682C23.6729 38.592 23.8967 38.3682 24.1729 38.3682H29.8867C31.8648 38.3682 33.4688 36.7643 33.4688 34.7861Z" fill="#29A829"/>
<path d="M23.6438 38.604C23.5001 37.9952 22.8898 37.6182 22.281 37.7619C21.6722 37.9056 21.2951 38.5158 21.4389 39.1247C21.5827 39.7334 22.1929 40.1105 22.8017 39.9668C23.4104 39.823 23.7875 39.2128 23.6438 38.604ZM24.617 38.3742C24.8876 39.5204 24.1777 40.6693 23.0315 40.94C21.8852 41.2107 20.7364 40.5007 20.4657 39.3545C20.195 38.2082 20.9049 37.0594 22.0512 36.7887C23.1975 36.5181 24.3463 37.228 24.617 38.3742Z" fill="#29A829"/>
<path d="M6.5293 31.52V24.9897C6.5293 24.7136 6.75315 24.4897 7.0293 24.4897C7.30544 24.4897 7.5293 24.7136 7.5293 24.9897V31.52C7.5293 31.7962 7.30544 32.02 7.0293 32.02C6.75315 32.02 6.5293 31.7962 6.5293 31.52Z" fill="#29A829"/>
<path d="M33.4697 31.52V24.9897C33.4697 24.7136 33.6936 24.4897 33.9697 24.4897C34.2459 24.4897 34.4697 24.7136 34.4697 24.9897V31.52C34.4697 31.7962 34.2459 32.02 33.9697 32.02C33.6936 32.02 33.4697 31.7962 33.4697 31.52Z" fill="#29A829"/>
<path d="M28.2529 6.12012C29.4959 6.1203 30.5329 7.27925 30.1552 8.52637C30.0405 8.9056 29.8254 9.31934 29.4961 9.77246C29.4909 9.77954 29.485 9.78617 29.4795 9.79297L27.8261 11.834H29.7314C30.0074 11.834 30.2312 12.058 30.2314 12.334C30.2314 12.6101 30.0075 12.834 29.7314 12.834H26.7763C26.5836 12.834 26.4082 12.7237 26.3252 12.5498C26.2422 12.3758 26.2663 12.1693 26.3877 12.0195L28.6904 9.17773C28.9716 8.78983 29.124 8.47856 29.1972 8.23633C29.3516 7.72669 28.928 7.1203 28.2529 7.12012C27.7612 7.12012 27.371 7.45611 27.2861 7.87207C27.2309 8.14265 26.9668 8.31786 26.6962 8.2627C26.4259 8.20743 26.2516 7.94323 26.3066 7.67285C26.4896 6.7752 27.3022 6.12012 28.2529 6.12012Z" fill="#29A829"/>
<path d="M35.7637 12.3389V6.62012C35.7637 6.34397 35.9875 6.12012 36.2637 6.12012C36.5398 6.12012 36.7637 6.34397 36.7637 6.62012V12.3389C36.7637 12.615 36.5398 12.8389 36.2637 12.8389C35.9875 12.8389 35.7637 12.615 35.7637 12.3389Z" fill="#29A829"/>
<path d="M32.4971 6.62012C32.4971 6.34411 32.721 6.12028 32.9971 6.12012C33.2731 6.12011 33.4969 6.34407 33.4971 6.62012L33.499 9.4043H36.2627C36.5387 9.40448 36.7627 9.62827 36.7627 9.9043C36.7625 10.1801 36.5386 10.4041 36.2627 10.4043H32.999C32.723 10.4043 32.4992 10.1803 32.499 9.9043L32.4971 6.62012Z" fill="#29A829"/>
<path d="M40 9.47949C39.9999 4.79637 36.2036 1 31.5205 1C26.8375 1.00006 23.0411 4.79641 23.041 9.47949C23.041 14.1627 26.8374 17.9589 31.5205 17.959C36.2037 17.959 40 14.1627 40 9.47949ZM41 9.47949C41 14.715 36.756 18.959 31.5205 18.959C26.2851 18.9589 22.041 14.7149 22.041 9.47949C22.0411 4.24414 26.2852 6.49401e-05 31.5205 0C36.7559 0 40.9999 4.2441 41 9.47949Z" fill="#29A829"/>
<path d="M26.9395 24.1738C26.9395 23.0976 26.0666 22.2246 24.9902 22.2246H16.0107C14.9343 22.2246 14.0615 23.0974 14.0615 24.1738V29.0713C14.0615 30.1477 14.9343 31.0205 16.0107 31.0205H16.5703C16.7689 31.0205 16.9496 31.1384 17.0293 31.3203L17.8477 33.1895L20.6084 31.1201C20.6948 31.0553 20.8002 31.0206 20.9082 31.0205H24.9902C26.0666 31.0205 26.9395 30.1476 26.9395 29.0713V24.1738ZM27.9395 29.0713C27.9395 30.7 26.6189 32.0205 24.9902 32.0205H21.0762L17.9434 34.3701C17.8212 34.4617 17.6633 34.492 17.5156 34.4531C17.3681 34.4142 17.2468 34.3097 17.1855 34.1699L16.2441 32.0205H16.0107C14.3821 32.0205 13.0615 30.7 13.0615 29.0713V24.1738C13.0615 22.5451 14.3821 21.2246 16.0107 21.2246H24.9902C26.6188 21.2246 27.9396 22.5452 27.9395 24.1738V29.0713Z" fill="#29A829"/>
<path d="M24.1729 24.4897C24.449 24.4897 24.6729 24.7136 24.6729 24.9897C24.6729 25.2659 24.449 25.4897 24.1729 25.4897H16.8262C16.55 25.4897 16.3262 25.2659 16.3262 24.9897C16.3262 24.7136 16.55 24.4897 16.8262 24.4897H24.1729Z" fill="#29A829"/>
<path d="M24.1729 27.7554C24.449 27.7554 24.6729 27.9792 24.6729 28.2554C24.6729 28.5315 24.449 28.7554 24.1729 28.7554H16.8262C16.55 28.7554 16.3262 28.5315 16.3262 28.2554C16.3262 27.9792 16.55 27.7554 16.8262 27.7554H24.1729Z" fill="#29A829"/>
</svg>
