<svg width="42" height="42" viewBox="0 0 42 42" fill="none" xmlns="http://www.w3.org/2000/svg">
<path d="M20 11C20 6.02944 15.9706 2 11 2C6.02944 2 2 6.02944 2 11C2 15.9706 6.02944 20 11 20C15.9706 20 20 15.9706 20 11ZM22 11C22 17.0751 17.0751 22 11 22C4.92487 22 0 17.0751 0 11C0 4.92487 4.92487 0 11 0C17.0751 0 22 4.92487 22 11Z" fill="#29A829"/>
<path d="M15 11C15 8.79086 13.2091 7 11 7C8.79086 7 7 8.79086 7 11C7 13.2091 8.79086 15 11 15C13.2091 15 15 13.2091 15 11ZM17 11C17 14.3137 14.3137 17 11 17C7.68629 17 5 14.3137 5 11C5 7.68629 7.68629 5 11 5C14.3137 5 17 7.68629 17 11Z" fill="#29A829"/>
<path d="M40 31C40 26.0294 35.9706 22 31 22C26.0294 22 22 26.0294 22 31C22 35.9706 26.0294 40 31 40C35.9706 40 40 35.9706 40 31ZM42 31C42 37.0751 37.0751 42 31 42C24.9249 42 20 37.0751 20 31C20 24.9249 24.9249 20 31 20C37.0751 20 42 24.9249 42 31Z" fill="#29A829"/>
<path d="M35 31C35 28.7909 33.2091 27 31 27C28.7909 27 27 28.7909 27 31C27 33.2091 28.7909 35 31 35C33.2091 35 35 33.2091 35 31ZM37 31C37 34.3137 34.3137 37 31 37C27.6863 37 25 34.3137 25 31C25 27.6863 27.6863 25 31 25C34.3137 25 37 27.6863 37 31Z" fill="#29A829"/>
<path d="M32 21V26H30V21H32Z" fill="#29A829"/>
<path d="M28.1719 26.7578L26.7578 28.1719L23.2227 24.6367L24.6367 23.2227L28.1719 26.7578Z" fill="#29A829"/>
<path d="M26 30V32H21V30H26Z" fill="#29A829"/>
<path d="M28.1719 35.2422L24.6367 38.7773L23.2227 37.3633L26.7578 33.8281L28.1719 35.2422Z" fill="#29A829"/>
<path d="M32 36V41H30V36H32Z" fill="#29A829"/>
<path d="M38.7773 37.3633L37.3633 38.7773L33.8281 35.2422L35.2422 33.8281L38.7773 37.3633Z" fill="#29A829"/>
<path d="M41 30V32H36V30H41Z" fill="#29A829"/>
<path d="M38.7773 24.6367L35.2422 28.1719L33.8281 26.7578L37.3633 23.2227L38.7773 24.6367Z" fill="#29A829"/>
<path d="M32.5 13.5V8.9375C32.4998 7.86741 31.6317 7 30.5615 7H26C25.4477 7 25 6.55228 25 6C25 5.44772 25.4477 5 26 5H30.5615C32.7362 5 34.4998 6.76284 34.5 8.9375V13.5C34.5 14.0523 34.0522 14.5 33.5 14.5C32.9477 14.5 32.5 14.0523 32.5 13.5Z" fill="#29A829"/>
<path d="M36.329 11.7577C36.7196 11.3673 37.3526 11.3673 37.7431 11.7577C38.1334 12.1482 38.1334 12.7813 37.7431 13.1718L34.207 16.707C33.8164 17.0975 33.1834 17.0975 32.7929 16.707L29.2577 13.1718C28.8672 12.7813 28.8672 12.1483 29.2577 11.7577C29.6483 11.3672 30.2813 11.3672 30.6718 11.7577L33.4999 14.5859L36.329 11.7577Z" fill="#29A829"/>
<path d="M7.38086 33.0625V28.5C7.38086 27.9477 7.82857 27.5 8.38086 27.5C8.93314 27.5 9.38086 27.9477 9.38086 28.5V33.0625C9.38109 34.1325 10.2484 34.9998 11.3184 35H15.8809C16.4331 35 16.8809 35.4477 16.8809 36C16.8809 36.5523 16.4331 37 15.8809 37H11.3184C9.14384 36.9998 7.38109 35.237 7.38086 33.0625Z" fill="#29A829"/>
<path d="M7.67366 25.2928C8.06413 24.9023 8.69719 24.9025 9.08772 25.2928L12.6239 28.828C13.0143 29.2184 13.0141 29.8515 12.6239 30.242C12.2333 30.6325 11.6003 30.6325 11.2098 30.242L8.38069 27.4129L5.55257 30.242C5.16204 30.6325 4.52903 30.6325 4.13851 30.242C3.74816 29.8515 3.74804 29.2184 4.13851 28.828L7.67366 25.2928Z" fill="#29A829"/>
</svg>
