<svg width="28" height="28" viewBox="0 0 28 28" fill="none" xmlns="http://www.w3.org/2000/svg">
<path d="M7.975 0H19.525C23.925 0 27.5 3.575 27.5 7.975V19.525C27.5 21.6401 26.6598 23.6686 25.1642 25.1642C23.6686 26.6598 21.6401 27.5 19.525 27.5H7.975C3.575 27.5 0 23.925 0 19.525V7.975C0 5.8599 0.840221 3.83143 2.33582 2.33582C3.83143 0.840221 5.8599 0 7.975 0ZM7.7 2.75C6.38718 2.75 5.12813 3.27152 4.19982 4.19982C3.27152 5.12813 2.75 6.38718 2.75 7.7V19.8C2.75 22.5362 4.96375 24.75 7.7 24.75H19.8C21.1128 24.75 22.3719 24.2285 23.3002 23.3002C24.2285 22.3719 24.75 21.1128 24.75 19.8V7.7C24.75 4.96375 22.5362 2.75 19.8 2.75H7.7ZM20.9688 4.8125C21.4246 4.8125 21.8618 4.99358 22.1841 5.31591C22.5064 5.63824 22.6875 6.07541 22.6875 6.53125C22.6875 6.98709 22.5064 7.42426 22.1841 7.74659C21.8618 8.06892 21.4246 8.25 20.9688 8.25C20.5129 8.25 20.0757 8.06892 19.7534 7.74659C19.4311 7.42426 19.25 6.98709 19.25 6.53125C19.25 6.07541 19.4311 5.63824 19.7534 5.31591C20.0757 4.99358 20.5129 4.8125 20.9688 4.8125ZM13.75 6.875C15.5734 6.875 17.322 7.59933 18.6114 8.88864C19.9007 10.178 20.625 11.9266 20.625 13.75C20.625 15.5734 19.9007 17.322 18.6114 18.6114C17.322 19.9007 15.5734 20.625 13.75 20.625C11.9266 20.625 10.178 19.9007 8.88864 18.6114C7.59933 17.322 6.875 15.5734 6.875 13.75C6.875 11.9266 7.59933 10.178 8.88864 8.88864C10.178 7.59933 11.9266 6.875 13.75 6.875ZM13.75 9.625C12.656 9.625 11.6068 10.0596 10.8332 10.8332C10.0596 11.6068 9.625 12.656 9.625 13.75C9.625 14.844 10.0596 15.8932 10.8332 16.6668C11.6068 17.4404 12.656 17.875 13.75 17.875C14.844 17.875 15.8932 17.4404 16.6668 16.6668C17.4404 15.8932 17.875 14.844 17.875 13.75C17.875 12.656 17.4404 11.6068 16.6668 10.8332C15.8932 10.0596 14.844 9.625 13.75 9.625Z" fill="black"/>
</svg>
