<svg width="25" height="25" viewBox="0 0 25 25" fill="none" xmlns="http://www.w3.org/2000/svg">
<path d="M22 0C22.7293 0 23.4288 0.289731 23.9445 0.805456C24.4603 1.32118 24.75 2.02065 24.75 2.75V22C24.75 22.7293 24.4603 23.4288 23.9445 23.9445C23.4288 24.4603 22.7293 24.75 22 24.75H2.75C2.02065 24.75 1.32118 24.4603 0.805456 23.9445C0.289731 23.4288 0 22.7293 0 22V2.75C0 2.02065 0.289731 1.32118 0.805456 0.805456C1.32118 0.289731 2.02065 0 2.75 0H22ZM21.3125 21.3125V14.025C21.3125 12.8362 20.8402 11.696 19.9996 10.8554C19.159 10.0148 18.0188 9.5425 16.83 9.5425C15.6612 9.5425 14.3 10.2575 13.64 11.33V9.80375H9.80375V21.3125H13.64V14.5337C13.64 13.475 14.4925 12.6088 15.5513 12.6088C16.0618 12.6088 16.5514 12.8116 16.9124 13.1726C17.2734 13.5336 17.4763 14.0232 17.4763 14.5337V21.3125H21.3125ZM5.335 7.645C5.94765 7.645 6.53521 7.40163 6.96842 6.96842C7.40163 6.53521 7.645 5.94765 7.645 5.335C7.645 4.05625 6.61375 3.01125 5.335 3.01125C4.7187 3.01125 4.12765 3.25607 3.69186 3.69186C3.25607 4.12765 3.01125 4.7187 3.01125 5.335C3.01125 6.61375 4.05625 7.645 5.335 7.645ZM7.24625 21.3125V9.80375H3.4375V21.3125H7.24625Z" fill="black"/>
</svg>
