<svg xmlns="http://www.w3.org/2000/svg" width="93" height="99" viewBox="0 0 93 99" fill="none"><path d="M87.3422 42.8298C87.3422 41.8056 86.9335 40.8223 86.204 40.0981C85.4745 39.3739 84.4841 38.9681 83.4525 38.9681H59.9373C59.7966 38.9681 59.661 39.0229 59.5615 39.1217C59.4621 39.2204 59.4068 39.355 59.4068 39.4947V93.383H87.3422V42.8298ZM53.749 9.47872C53.749 8.45454 53.3403 7.47122 52.6109 6.74701C51.8814 6.0228 50.8909 5.61702 49.8593 5.61702H9.54753C8.51591 5.61702 7.52545 6.0228 6.79598 6.74701C6.06652 7.47122 5.65779 8.45454 5.65779 9.47872V93.383H26.8745V82.8511C26.8745 81.3 28.1411 80.0426 29.7034 80.0426C31.2658 80.0426 32.5323 81.3 32.5323 82.8511V93.383H53.749V9.47872ZM59.4068 33.373C59.5825 33.358 59.7595 33.3511 59.9373 33.3511H83.4525C85.9846 33.3511 88.4137 34.3491 90.2043 36.1267C91.9948 37.9043 93 40.3159 93 42.8298V96.1915C93 97.7426 91.7335 99 90.1711 99H56.5779C56.4308 99 56.2881 98.9776 56.147 98.9561C56.0111 98.9713 55.8762 99 55.7381 99H2.8289C1.26654 99 0 97.7426 0 96.1915V9.47872C0 6.96481 1.00524 4.5532 2.79575 2.7756C4.58626 0.997993 7.01537 0 9.54753 0H49.8593C52.3915 0 54.8206 0.997993 56.6111 2.7756C58.4016 4.5532 59.4068 6.96481 59.4068 9.47872V33.373Z" fill="#29A829"/><path d="M13.3436 86.1591C12.6478 86.2494 11.9411 86.1212 11.3225 85.7924C10.7039 85.4636 10.2045 84.9508 9.8944 84.3259C9.58434 83.701 9.47914 82.9954 9.59359 82.3081C9.70803 81.6209 10.0364 80.9864 10.5325 80.4939C11.0287 80.0013 11.6677 79.6753 12.36 79.5617C13.0523 79.4481 13.763 79.5525 14.3924 79.8603C15.0219 80.1682 15.5384 80.6639 15.8696 81.2781C16.2007 81.8922 16.3299 82.5939 16.2389 83.2846C16.1428 84.0136 15.8069 84.6906 15.2833 85.2104C14.7597 85.7302 14.0778 86.0637 13.3436 86.1591ZM13.3436 69.4835C12.6478 69.5739 11.9411 69.4457 11.3225 69.1169C10.7039 68.7881 10.2045 68.2753 9.8944 67.6504C9.58434 67.0255 9.47914 66.3199 9.59359 65.6326C9.70803 64.9453 10.0364 64.3109 10.5325 63.8183C11.0287 63.3257 11.6677 62.9998 12.36 62.8861C13.0523 62.7725 13.763 62.877 14.3924 63.1848C15.0219 63.4926 15.5384 63.9884 15.8696 64.6026C16.2007 65.2167 16.3299 65.9184 16.2389 66.6091C16.1428 67.338 15.8069 68.015 15.2833 68.5349C14.7597 69.0547 14.0778 69.3882 13.3436 69.4835ZM13.3436 52.808C12.6478 52.8983 11.9411 52.7701 11.3225 52.4414C10.7039 52.1126 10.2045 51.5998 9.8944 50.9749C9.58434 50.35 9.47914 49.6444 9.59359 48.9571C9.70803 48.2698 10.0364 47.6354 10.5325 47.1428C11.0287 46.6502 11.6677 46.3242 12.36 46.2106C13.0523 46.097 13.763 46.2014 14.3924 46.5093C15.0219 46.8171 15.5384 47.3129 15.8696 47.927C16.2007 48.5412 16.3299 49.2428 16.2389 49.9336C16.1428 50.6625 15.8069 51.3395 15.2833 51.8593C14.7597 52.3792 14.0778 52.7127 13.3436 52.808ZM13.3436 36.1325C12.6478 36.2228 11.9411 36.0946 11.3225 35.7658C10.7039 35.4371 10.2045 34.9242 9.8944 34.2993C9.58434 33.6744 9.47914 32.9688 9.59359 32.2816C9.70803 31.5943 10.0364 30.9598 10.5325 30.4673C11.0287 29.9747 11.6677 29.6487 12.36 29.5351C13.0523 29.4215 13.763 29.5259 14.3924 29.8337C15.0219 30.1416 15.5384 30.6374 15.8696 31.2515C16.2007 31.8656 16.3299 32.5673 16.2389 33.258C16.1428 33.987 15.8069 34.664 15.2833 35.1838C14.7597 35.7036 14.0778 36.0371 13.3436 36.1325ZM13.3436 19.4569C12.6478 19.5473 11.9411 19.4191 11.3225 19.0903C10.7039 18.7615 10.2045 18.2487 9.8944 17.6238C9.58434 16.9989 9.47914 16.2933 9.59359 15.606C9.70803 14.9187 10.0364 14.2843 10.5325 13.7917C11.0287 13.2991 11.6677 12.9732 12.36 12.8596C13.0523 12.7459 13.763 12.8504 14.3924 13.1582C15.0219 13.466 15.5384 13.9618 15.8696 14.576C16.2007 15.1901 16.3299 15.8918 16.2389 16.5825C16.1428 17.3114 15.8069 17.9885 15.2833 18.5083C14.7597 19.0281 14.0778 19.3616 13.3436 19.4569ZM30.1401 69.4835C29.4444 69.5739 28.7376 69.4457 28.119 69.1169C27.5004 68.7881 27.0011 68.2753 26.691 67.6504C26.3809 67.0255 26.2757 66.3199 26.3902 65.6326C26.5046 64.9453 26.8329 64.3109 27.3291 63.8183C27.8253 63.3257 28.4643 62.9998 29.1566 62.8861C29.8488 62.7725 30.5596 62.877 31.189 63.1848C31.8184 63.4926 32.335 63.9884 32.6661 64.6026C32.9973 65.2167 33.1264 65.9184 33.0354 66.6091C32.9394 67.338 32.6035 68.015 32.0799 68.5349C31.5563 69.0547 30.8744 69.3882 30.1401 69.4835ZM30.1401 52.808C29.4444 52.8983 28.7376 52.7701 28.119 52.4414C27.5004 52.1126 27.0011 51.5998 26.691 50.9749C26.3809 50.35 26.2757 49.6444 26.3902 48.9571C26.5046 48.2698 26.8329 47.6354 27.3291 47.1428C27.8253 46.6502 28.4643 46.3242 29.1566 46.2106C29.8488 46.097 30.5596 46.2014 31.189 46.5093C31.8184 46.8171 32.335 47.3129 32.6661 47.927C32.9973 48.5412 33.1264 49.2428 33.0354 49.9336C32.9394 50.6625 32.6035 51.3395 32.0799 51.8593C31.5563 52.3792 30.8744 52.7127 30.1401 52.808ZM30.1401 36.1325C29.4444 36.2228 28.7376 36.0946 28.119 35.7658C27.5004 35.4371 27.0011 34.9242 26.691 34.2993C26.3809 33.6744 26.2757 32.9688 26.3902 32.2816C26.5046 31.5943 26.8329 30.9598 27.3291 30.4673C27.8253 29.9747 28.4643 29.6487 29.1566 29.5351C29.8488 29.4215 30.5596 29.5259 31.189 29.8337C31.8184 30.1416 32.335 30.6374 32.6661 31.2515C32.9973 31.8656 33.1264 32.5673 33.0354 33.258C32.9394 33.987 32.6035 34.664 32.0799 35.1838C31.5563 35.7036 30.8744 36.0371 30.1401 36.1325ZM30.1401 19.4569C29.4444 19.5473 28.7376 19.4191 28.119 19.0903C27.5004 18.7615 27.0011 18.2487 26.691 17.6238C26.3809 16.9989 26.2757 16.2933 26.3902 15.606C26.5046 14.9187 26.8329 14.2843 27.3291 13.7917C27.8253 13.2991 28.4643 12.9732 29.1566 12.8596C29.8488 12.7459 30.5596 12.8504 31.189 13.1582C31.8184 13.466 32.335 13.9618 32.6661 14.576C32.9973 15.1901 33.1264 15.8918 33.0354 16.5825C32.9394 17.3114 32.6035 17.9885 32.0799 18.5083C31.5563 19.0281 30.8744 19.3616 30.1401 19.4569ZM46.9367 86.1591C46.241 86.2494 45.5342 86.1212 44.9156 85.7924C44.297 85.4636 43.7976 84.9508 43.4876 84.3259C43.1775 83.701 43.0723 82.9954 43.1867 82.3081C43.3012 81.6209 43.6295 80.9864 44.1257 80.4939C44.6218 80.0013 45.2609 79.6753 45.9531 79.5617C46.6454 79.4481 47.3561 79.5525 47.9856 79.8603C48.615 80.1682 49.1316 80.6639 49.4627 81.2781C49.7939 81.8922 49.923 82.5939 49.832 83.2846C49.736 84.0136 49.4001 84.6906 48.8765 85.2104C48.3529 85.7302 47.6709 86.0637 46.9367 86.1591ZM46.9367 69.4835C46.241 69.5739 45.5342 69.4457 44.9156 69.1169C44.297 68.7881 43.7976 68.2753 43.4876 67.6504C43.1775 67.0255 43.0723 66.3199 43.1867 65.6326C43.3012 64.9453 43.6295 64.3109 44.1257 63.8183C44.6218 63.3257 45.2609 62.9998 45.9531 62.8861C46.6454 62.7725 47.3561 62.877 47.9856 63.1848C48.615 63.4926 49.1316 63.9884 49.4627 64.6026C49.7939 65.2167 49.923 65.9184 49.832 66.6091C49.736 67.338 49.4001 68.015 48.8765 68.5349C48.3529 69.0547 47.6709 69.3882 46.9367 69.4835ZM46.9367 52.808C46.241 52.8983 45.5342 52.7701 44.9156 52.4414C44.297 52.1126 43.7976 51.5998 43.4876 50.9749C43.1775 50.35 43.0723 49.6444 43.1867 48.9571C43.3012 48.2698 43.6295 47.6354 44.1257 47.1428C44.6218 46.6502 45.2609 46.3242 45.9531 46.2106C46.6454 46.097 47.3561 46.2014 47.9856 46.5093C48.615 46.8171 49.1316 47.3129 49.4627 47.927C49.7939 48.5412 49.923 49.2428 49.832 49.9336C49.736 50.6625 49.4001 51.3395 48.8765 51.8593C48.3529 52.3792 47.6709 52.7127 46.9367 52.808Z" fill="#29A829"/><path d="M48.8871 35.188C50.1948 33.8896 50.1895 31.7793 48.8752 30.4744C47.5608 29.1695 45.4352 29.1642 44.1274 30.4626C42.8196 31.761 42.8249 33.8713 44.1392 35.1762C45.4536 36.4811 47.5793 36.4864 48.8871 35.188Z" fill="#29A829"/><path d="M46.9367 19.4569C46.241 19.5473 45.5342 19.4191 44.9156 19.0903C44.297 18.7615 43.7976 18.2487 43.4876 17.6238C43.1775 16.9989 43.0723 16.2933 43.1867 15.606C43.3012 14.9187 43.6295 14.2843 44.1257 13.7917C44.6218 13.2991 45.2609 12.9732 45.9531 12.8596C46.6454 12.7459 47.3561 12.8504 47.9856 13.1582C48.615 13.466 49.1316 13.9618 49.4627 14.576C49.7939 15.1901 49.923 15.8918 49.832 16.5825C49.736 17.3114 49.4001 17.9885 48.8765 18.5083C48.3529 19.0281 47.6709 19.3616 46.9367 19.4569ZM76.7338 79.516C76.0694 79.516 75.4199 79.7116 74.8675 80.078C74.3151 80.4445 73.8845 80.9654 73.6302 81.5748C73.376 82.1842 73.3094 82.8548 73.4391 83.5017C73.5687 84.1487 73.8886 84.7429 74.3584 85.2093C74.8282 85.6758 75.4268 85.9934 76.0785 86.1221C76.7301 86.2508 77.4056 86.1847 78.0194 85.9323C78.6332 85.6799 79.1579 85.2524 79.527 84.7039C79.8961 84.1555 80.0932 83.5107 80.0932 82.8511C80.0932 81.9665 79.7392 81.1182 79.1092 80.4928C78.4792 79.8673 77.6248 79.516 76.7338 79.516ZM76.7338 62.8404C76.0694 62.8404 75.4199 63.036 74.8675 63.4025C74.3151 63.769 73.8845 64.2898 73.6302 64.8992C73.376 65.5086 73.3094 66.1792 73.4391 66.8262C73.5687 67.4731 73.8886 68.0674 74.3584 68.5338C74.8282 69.0002 75.4268 69.3179 76.0785 69.4466C76.7301 69.5752 77.4056 69.5092 78.0194 69.2568C78.6332 69.0043 79.1579 68.5769 79.527 68.0284C79.8961 67.48 80.0932 66.8352 80.0932 66.1755C80.0932 65.291 79.7392 64.4427 79.1092 63.8172C78.4792 63.1918 77.6248 62.8404 76.7338 62.8404ZM76.7338 46.1649C76.0694 46.1649 75.4199 46.3605 74.8675 46.727C74.3151 47.0934 73.8845 47.6143 73.6302 48.2237C73.376 48.8331 73.3094 49.5037 73.4391 50.1506C73.5687 50.7976 73.8886 51.3919 74.3584 51.8583C74.8282 52.3247 75.4268 52.6423 76.0785 52.771C76.7301 52.8997 77.4056 52.8337 78.0194 52.5812C78.6332 52.3288 79.1579 51.9013 79.527 51.3529C79.8961 50.8044 80.0932 50.1596 80.0932 49.5C80.0932 48.6155 79.7392 47.7672 79.1092 47.1417C78.4792 46.5163 77.6248 46.1649 76.7338 46.1649ZM63.2966 79.516C62.6322 79.516 61.9827 79.7116 61.4302 80.078C60.8778 80.4445 60.4472 80.9654 60.193 81.5748C59.9387 82.1842 59.8722 82.8548 60.0018 83.5017C60.1314 84.1487 60.4514 84.7429 60.9212 85.2093C61.391 85.6758 61.9896 85.9934 62.6412 86.1221C63.2928 86.2508 63.9683 86.1847 64.5821 85.9323C65.196 85.6799 65.7206 85.2524 66.0897 84.7039C66.4589 84.1555 66.6559 83.5107 66.6559 82.8511C66.6559 81.9665 66.302 81.1182 65.672 80.4928C65.042 79.8673 64.1875 79.516 63.2966 79.516ZM63.2966 62.8404C62.6322 62.8404 61.9827 63.036 61.4302 63.4025C60.8778 63.769 60.4472 64.2898 60.193 64.8992C59.9387 65.5086 59.8722 66.1792 60.0018 66.8262C60.1314 67.4731 60.4514 68.0674 60.9212 68.5338C61.391 69.0002 61.9896 69.3179 62.6412 69.4466C63.2928 69.5752 63.9683 69.5092 64.5821 69.2568C65.196 69.0043 65.7206 68.5769 66.0897 68.0284C66.4589 67.48 66.6559 66.8352 66.6559 66.1755C66.6559 65.291 66.302 64.4427 65.672 63.8172C65.042 63.1918 64.1875 62.8404 63.2966 62.8404ZM63.2966 46.1649C62.6322 46.1649 61.9827 46.3605 61.4302 46.727C60.8778 47.0934 60.4472 47.6143 60.193 48.2237C59.9387 48.8331 59.8722 49.5037 60.0018 50.1506C60.1314 50.7976 60.4514 51.3919 60.9212 51.8583C61.391 52.3247 61.9896 52.6423 62.6412 52.771C63.2928 52.8997 63.9683 52.8337 64.5821 52.5812C65.196 52.3288 65.7206 51.9013 66.0897 51.3529C66.4589 50.8044 66.6559 50.1596 66.6559 49.5C66.6559 48.6155 66.302 47.7672 65.672 47.1417C65.042 46.5163 64.1875 46.1649 63.2966 46.1649Z" fill="#29A829"/></svg>