<?xml version="1.0" encoding="UTF-8" standalone="no"?><svg xmlns="http://www.w3.org/2000/svg" xmlns:xlink="http://www.w3.org/1999/xlink" xmlns:serif="http://www.serif.com/" width="100%" height="100%" viewBox="0 0 84 84" version="1.1" style="fill-rule:evenodd;clip-rule:evenodd;stroke-linejoin:round;stroke-miterlimit:2;"><path d="M83.333,41.667c0,-23 -18.667,-41.667 -41.667,-41.667c-23,0 -41.667,18.667 -41.667,41.667c0,20.167 14.333,36.958 33.333,40.833l0,-28.333l-8.333,0l0,-12.5l8.333,0l0,-10.417c0,-8.042 6.542,-14.583 14.583,-14.583l10.417,0l0,12.5l-8.333,0c-2.292,0 -4.167,1.875 -4.167,4.167l0,8.333l12.5,0l0,12.5l-12.5,0l0,28.958c21.042,-2.083 37.5,-19.833 37.5,-41.458Z" style="fill:#0f0000;fill-rule:nonzero;"/></svg>