<?xml version="1.0" encoding="UTF-8" standalone="no"?><svg xmlns="http://www.w3.org/2000/svg" xmlns:xlink="http://www.w3.org/1999/xlink" xmlns:serif="http://www.serif.com/" width="100%" height="100%" viewBox="0 0 84 84" version="1.1" style="fill-rule:evenodd;clip-rule:evenodd;stroke-linejoin:round;stroke-miterlimit:2;"><path d="M32.796,64.772l-7.375,7.167c-1.934,1.934 -4.557,3.02 -7.292,3.02c-2.735,0 -5.358,-1.087 -7.292,-3.02c-1.934,-1.934 -3.02,-4.557 -3.02,-7.292c0,-2.735 1.086,-5.358 3.02,-7.292l18.917,-18.958c1.857,-1.863 4.358,-2.941 6.988,-3.01c2.629,-0.07 5.184,0.874 7.137,2.635l0.5,0.417c0.79,0.774 1.855,1.202 2.961,1.19c1.106,-0.012 2.162,-0.462 2.935,-1.252c0.774,-0.79 1.202,-1.855 1.19,-2.961c-0.012,-1.106 -0.462,-2.161 -1.252,-2.935c-0.236,-0.303 -0.487,-0.595 -0.75,-0.875c-3.557,-3.095 -8.157,-4.721 -12.868,-4.551c-4.712,0.17 -9.182,2.125 -12.507,5.468l-19.167,18.958c-3.257,3.545 -5.018,8.211 -4.916,13.024c0.102,4.812 2.059,9.4 5.463,12.804c3.404,3.404 7.991,5.361 12.804,5.463c4.813,0.102 9.479,-1.659 13.024,-4.916l7.208,-7.042c0.712,-0.776 1.103,-1.794 1.095,-2.847c-0.008,-1.053 -0.415,-2.064 -1.138,-2.83c-0.723,-0.765 -1.71,-1.229 -2.761,-1.296c-1.051,-0.068 -2.089,0.265 -2.904,0.932Zm44.542,-59.333c-3.505,-3.483 -8.246,-5.438 -13.188,-5.438c-4.941,0 -9.682,1.955 -13.188,5.438l-7.208,7.042c-0.712,0.776 -1.103,1.794 -1.095,2.847c0.008,1.053 0.415,2.064 1.138,2.83c0.723,0.766 1.71,1.229 2.761,1.296c1.051,0.068 2.089,-0.265 2.904,-0.932l7.208,-7.167c1.934,-1.934 4.557,-3.02 7.292,-3.02c2.735,0 5.358,1.086 7.292,3.02c1.934,1.934 3.02,4.557 3.02,7.292c0,2.735 -1.086,5.358 -3.02,7.292l-18.917,18.958c-1.857,1.863 -4.358,2.94 -6.987,3.01c-2.629,0.07 -5.184,-0.874 -7.137,-2.635l-0.5,-0.417c-0.79,-0.773 -1.855,-1.202 -2.961,-1.19c-1.106,0.012 -2.161,0.462 -2.935,1.252c-0.774,0.79 -1.202,1.855 -1.19,2.961c0.012,1.106 0.462,2.162 1.252,2.935c0.304,0.308 0.624,0.6 0.958,0.875c3.561,3.085 8.159,4.706 12.868,4.536c4.709,-0.17 9.178,-2.118 12.507,-5.453l18.958,-18.958c3.506,-3.483 5.491,-8.212 5.522,-13.153c0.031,-4.942 -1.894,-9.695 -5.355,-13.222Z" style="fill-rule:nonzero;"/></svg>