<?xml version="1.0" encoding="UTF-8" standalone="no"?><svg xmlns="http://www.w3.org/2000/svg" xmlns:xlink="http://www.w3.org/1999/xlink" xmlns:serif="http://www.serif.com/" width="100%" height="100%" viewBox="0 0 84 84" version="1.1" style="fill-rule:evenodd;clip-rule:evenodd;stroke-linejoin:round;stroke-miterlimit:2;"><path d="M70.833,12.125c-3.82,-3.858 -8.371,-6.917 -13.385,-8.998c-5.015,-2.082 -10.393,-3.144 -15.823,-3.127c-22.75,-0 -41.292,18.542 -41.292,41.292c-0,7.292 1.917,14.375 5.5,20.625l-5.833,21.417l21.875,-5.75c6.042,3.292 12.833,5.042 19.75,5.042c22.75,0 41.292,-18.542 41.292,-41.292c0,-11.042 -4.292,-21.417 -12.083,-29.208Zm-29.208,63.5c-6.167,0 -12.208,-1.667 -17.5,-4.792l-1.25,-0.75l-13,3.417l3.458,-12.667l-0.833,-1.292c-3.427,-5.471 -5.246,-11.795 -5.25,-18.25c0,-18.917 15.417,-34.333 34.333,-34.333c9.167,-0 17.792,3.583 24.25,10.083c3.198,3.183 5.733,6.969 7.457,11.139c1.724,4.17 2.603,8.641 2.585,13.153c0.083,18.917 -15.333,34.292 -34.25,34.292Zm18.833,-25.667c-1.042,-0.5 -6.125,-3 -7.042,-3.375c-0.958,-0.333 -1.625,-0.5 -2.333,0.5c-0.708,1.042 -2.667,3.375 -3.25,4.042c-0.583,0.708 -1.208,0.792 -2.25,0.25c-1.042,-0.5 -4.375,-1.625 -8.292,-5.125c-3.083,-2.75 -5.125,-6.125 -5.75,-7.167c-0.583,-1.042 -0.083,-1.583 0.458,-2.125c0.458,-0.458 1.042,-1.208 1.542,-1.792c0.5,-0.583 0.708,-1.042 1.042,-1.708c0.333,-0.708 0.167,-1.292 -0.083,-1.792c-0.25,-0.5 -2.333,-5.583 -3.167,-7.667c-0.833,-2 -1.708,-1.75 -2.333,-1.792l-2,0c-0.708,0 -1.792,0.25 -2.75,1.292c-0.917,1.042 -3.583,3.542 -3.583,8.625c0,5.083 3.708,10 4.208,10.667c0.5,0.708 7.292,11.125 17.625,15.583c2.458,1.083 4.375,1.708 5.875,2.167c2.458,0.792 4.708,0.667 6.5,0.417c2,-0.292 6.125,-2.5 6.958,-4.917c0.875,-2.417 0.875,-4.458 0.583,-4.917c-0.292,-0.458 -0.917,-0.667 -1.958,-1.167Z" style="fill-rule:nonzero;"/></svg>