<?xml version="1.0" encoding="UTF-8" standalone="no"?><svg xmlns="http://www.w3.org/2000/svg" xmlns:xlink="http://www.w3.org/1999/xlink" xmlns:serif="http://www.serif.com/" width="100%" height="100%" viewBox="0 0 75 84" version="1.1" style="fill-rule:evenodd;clip-rule:evenodd;stroke-linejoin:round;stroke-miterlimit:2;"><path d="M10.748,10.929c6.446,-6.871 15.792,-10.929 27.363,-10.929c19.021,0 31.633,10.963 35.625,26.154c0.281,1.069 0.125,2.206 -0.433,3.16c-0.557,0.954 -1.471,1.648 -2.54,1.929c-1.069,0.281 -2.206,0.125 -3.16,-0.432c-0.955,-0.558 -1.648,-1.471 -1.929,-2.541c-3.029,-11.512 -12.317,-19.938 -27.567,-19.938c-9.525,-0 -16.583,3.287 -21.275,8.292c-4.733,5.05 -7.371,12.179 -7.371,20.354l0,9.375c0,8.175 2.638,15.304 7.371,20.35c4.692,5.012 11.75,8.296 21.275,8.296c6.896,0 12.367,-1.6 16.567,-4.187c4.229,-2.604 6.75,-6.058 7.458,-10.021c0.812,-4.567 -0.188,-7.7 -1.908,-9.962c-0.944,-1.218 -2.091,-2.262 -3.392,-3.087c-0.562,3.121 -1.567,6.067 -3.083,8.375c-5.592,8.496 -16.283,9.225 -23.333,6.413c-3.817,-1.521 -7.087,-5.683 -8.104,-10.146c-0.617,-2.558 -0.412,-5.245 0.587,-7.679c1.104,-2.65 3.15,-4.908 6.063,-6.625c2.883,-1.704 7.167,-2.487 11.413,-2.604c2.558,-0.071 5.333,0.1 8.125,0.554c-0.583,-2.708 -1.571,-4.729 -2.683,-5.767c-2.017,-1.875 -5.358,-3.196 -8.708,-3.175c-3.238,0.025 -5.983,1.271 -7.625,3.896c-0.586,0.937 -1.52,1.603 -2.596,1.852c-1.077,0.248 -2.208,0.059 -3.145,-0.527c-0.937,-0.586 -1.603,-1.52 -1.852,-2.596c-0.248,-1.077 -0.059,-2.208 0.527,-3.145c3.488,-5.575 9.233,-7.771 14.638,-7.812c5.292,-0.038 10.742,1.967 14.442,5.408c3.742,3.483 5.35,9.196 5.767,14.392c3.642,1.588 7.083,3.917 9.604,7.238c3.254,4.292 4.654,9.825 3.471,16.463c-1.208,6.767 -5.479,12.075 -11.292,15.654c-5.7,3.508 -12.733,5.425 -20.938,5.425c-11.567,0 -20.917,-4.058 -27.354,-10.929c-6.4,-6.825 -9.625,-16.1 -9.625,-26.05l0,-9.375c0,-9.95 3.225,-19.225 9.625,-26.05l-0.004,0Zm38.125,33.654c-2.718,-0.586 -5.496,-0.846 -8.275,-0.775c-3.712,0.1 -6.317,0.804 -7.404,1.446c-1.6,0.946 -2.292,1.908 -2.6,2.654c-0.329,0.836 -0.384,1.755 -0.158,2.625c0.508,2.233 2.188,3.908 3.067,4.254c4.692,1.875 10.562,0.883 13.283,-3.25c0.979,-1.492 1.758,-4 2.083,-6.954l0.004,0Z"/></svg>