<svg width="208" height="229" viewBox="0 0 208 229" fill="none" xmlns="http://www.w3.org/2000/svg">
<path fill-rule="evenodd" clip-rule="evenodd" d="M146.672 0C151.088 0.00258439 154.672 3.57795 154.672 7.98801V21.3118H178.672C194.868 21.3146 207.997 34.424 208 50.5959V199.716C207.997 215.888 194.868 228.997 178.672 229H29.3281C13.1319 228.997 0.00281138 215.888 0 199.716V50.5959C0.00281448 34.424 13.1319 21.3146 29.3281 21.3118H53.3281V7.98801C53.3281 3.57823 56.9124 0.00303479 61.3281 0C65.7464 0 69.3281 3.57635 69.3281 7.98801V21.3118H138.672V7.98801C138.672 3.57635 142.254 0 146.672 0ZM29.3281 37.2878C21.9685 37.2906 16.0028 43.2473 16 50.5959V199.716C16.0028 207.064 21.9685 213.021 29.3281 213.024H31.5625C33.3676 196.893 40.5822 181.754 52.1875 170.166C58.5459 163.818 65.9764 158.792 74.0469 155.236C61.5058 146.029 53.3454 131.234 53.3438 114.5C53.3438 86.5595 76.0332 63.9041 104.016 63.9041C131.992 63.9111 154.672 86.5638 154.672 114.5C154.67 131.54 146.197 146.571 133.266 155.735C140.902 159.257 147.937 164.114 154 170.166C165.605 181.754 172.82 196.893 174.625 213.024H178.672C186.032 213.021 191.997 207.064 192 199.716V50.5959C191.997 43.2473 186.032 37.2906 178.672 37.2878H29.3281ZM103.094 165.08C88.2428 165.08 74.0018 170.977 63.5 181.462C54.8998 190.049 49.3879 201.144 47.6719 213.024H158.516C156.8 201.144 151.288 190.049 142.688 181.462C132.186 170.977 117.945 165.08 103.094 165.08ZM104.016 79.8801C84.8698 79.8801 69.3438 95.3828 69.3438 114.5C69.3466 133.615 84.8715 149.104 104.016 149.104C123.154 149.097 138.669 133.61 138.672 114.5C138.672 95.3872 123.156 79.8871 104.016 79.8801Z" fill="#222222"/>
</svg>
