<svg width="200" height="200" viewBox="0 0 200 200" fill="none" xmlns="http://www.w3.org/2000/svg">
<path d="M0 104.805C0 54.1274 39.6022 12.3695 90.205 9.72961C92.3651 9.56962 94.2852 11.2895 94.4052 13.5294C94.5252 15.7293 92.8051 17.6092 90.605 17.7292C44.2824 20.1291 8.00044 58.3672 8.00044 104.805C8.00044 152.882 47.1226 192 95.2053 192C141.648 192 179.89 155.722 182.29 109.405C182.41 107.205 184.33 105.485 186.49 105.605C188.69 105.725 190.411 107.605 190.291 109.805C187.65 160.402 145.888 200 95.2053 200C42.7224 200 0 157.282 0 104.805ZM72.004 104.805C72.004 92.0055 82.4045 81.606 95.2053 81.606C108.006 81.606 118.407 92.0055 118.407 104.805C118.407 117.604 108.006 128.004 95.2053 128.004C82.4045 128.004 72.004 117.604 72.004 104.805ZM80.0044 104.805C80.0044 113.204 86.8048 120.004 95.2053 120.004C103.606 120.004 110.406 113.204 110.406 104.805C110.406 96.4052 103.606 89.6056 95.2053 89.6056C86.8048 89.6056 80.0044 96.4052 80.0044 104.805ZM95.2053 78.0062C98.9655 78.0062 102.006 74.9663 102.006 71.2065C102.006 67.4467 98.9655 64.4069 95.2053 64.4069C91.445 64.4069 88.4049 67.4467 88.4049 71.2065C88.4049 74.9663 91.445 78.0062 95.2053 78.0062ZM126.407 97.2052C130.167 97.2052 133.207 94.1653 133.207 90.4055C133.207 86.6457 130.167 83.6059 126.407 83.6059C122.647 83.6059 119.607 86.6457 119.607 90.4055C119.607 94.1653 122.647 97.2052 126.407 97.2052ZM112.406 131.203C112.406 134.963 115.446 138.003 119.207 138.003C122.967 138.003 126.007 134.963 126.007 131.203C126.007 127.444 122.967 124.404 119.207 124.404C115.446 124.404 112.406 127.444 112.406 131.203ZM57.2032 90.4055C57.2032 94.1653 60.2433 97.2052 64.0035 97.2052C67.7637 97.2052 70.8039 94.1653 70.8039 90.4055C70.8039 86.6457 67.7637 83.6059 64.0035 83.6059C60.2433 83.6059 57.2032 86.6457 57.2032 90.4055ZM64.4036 131.203C64.4036 134.963 67.4437 138.003 71.2039 138.003C74.9641 138.003 78.0043 134.963 78.0043 131.203C78.0043 127.444 74.9641 124.404 71.2039 124.404C67.4437 124.404 64.4036 127.444 64.4036 131.203ZM101.726 15.6893C100.766 14.1294 101.006 12.0895 102.286 10.7696L111.886 1.17005C112.886 0.170096 114.326 -0.229884 115.686 0.130098L134.407 4.80986H153.128C154.209 4.80986 155.209 5.24984 155.969 5.9698L170.369 20.3691C171.129 21.129 171.529 22.129 171.529 23.2089V28.8086H177.13C178.21 28.8086 179.21 29.2486 179.97 29.9686L194.371 44.3679C195.131 45.1278 195.531 46.1278 195.531 47.2077V65.9668L199.891 84.7258C200.211 86.0458 199.811 87.4457 198.891 88.4056L189.61 98.0052C188.85 98.8051 187.77 99.2451 186.73 99.2451C186.01 99.2451 185.29 99.0451 184.65 98.6451C180.49 96.0852 170.649 94.7253 167.209 94.4053C165.609 94.2453 164.249 93.2054 163.769 91.6855C153.328 60.1671 135.447 42.208 109.166 36.7283C107.446 36.3683 106.166 34.9283 106.006 33.1684C105.646 29.7286 104.286 19.8491 101.726 15.6893ZM110.006 14.4094C112.046 19.3291 113.126 25.7688 113.606 29.5286C140.688 36.0883 159.369 54.8473 170.529 86.6857C174.21 87.1657 180.89 88.2056 185.93 90.2855L191.651 84.3658L187.69 67.2867C187.61 67.0067 187.57 66.6867 187.57 66.3668V48.8076L185.49 46.7277L176.05 56.1673C175.25 56.9672 174.25 57.3272 173.21 57.3272C172.169 57.3272 171.169 56.9272 170.369 56.1673C168.809 54.6074 168.809 52.0875 170.369 50.5276L179.81 41.088L175.49 36.7682H167.529C165.329 36.7682 163.529 34.9683 163.529 32.7684V24.8489L160.169 21.489L150.848 30.8085C150.048 31.6085 149.048 32.0085 148.008 32.0085C146.968 32.0085 145.968 31.6085 145.168 30.8485C143.608 29.2886 143.608 26.7688 145.168 25.2088L154.489 15.8893L151.488 12.8095H133.927C133.607 12.8095 133.287 12.7695 132.967 12.6895L115.966 8.44968L110.006 14.4094ZM67.9237 55.0073C76.0442 50.5676 85.3247 48.0077 95.2053 48.0077C126.527 48.0077 152.008 73.4864 152.008 104.805C152.008 106.965 151.848 109.085 151.608 111.204C163.249 115.324 166.409 127.684 166.409 133.963C166.409 136.163 164.609 137.963 162.409 137.963C160.209 137.963 158.409 136.163 158.409 133.963C158.409 133.483 158.209 123.044 150.088 119.204C144.088 142.043 124.207 159.282 100.046 161.322C99.4055 174.001 88.0449 180.441 81.8445 182.121C81.4845 182.201 81.1645 182.241 80.8045 182.241C79.0444 182.241 77.4043 181.081 76.9642 179.281C76.4042 177.161 77.6443 174.961 79.8044 174.401C80.2844 174.281 91.165 171.121 92.0451 161.402C67.6037 160.042 47.2826 143.203 40.7222 120.564C38.6021 121.244 36.482 121.604 34.4819 121.604C26.7215 121.604 19.9211 117.244 16.6409 113.964C15.0808 112.404 15.0808 109.885 16.6409 108.325C18.201 106.765 20.7211 106.765 22.2812 108.325C22.6413 108.645 30.4417 116.164 39.0422 112.684C38.6821 110.085 38.4421 107.485 38.4421 104.805C38.4421 86.2458 47.4426 69.7666 61.2834 59.4071C54.243 50.1676 57.5232 38.5282 60.6033 33.2084C61.7234 31.2885 64.1635 30.6486 66.0836 31.7285C68.0038 32.8484 68.6438 35.2883 67.5637 37.2082C67.2437 37.6482 61.7634 47.5277 67.9237 55.0073ZM95.2053 56.0073C68.2838 56.0073 46.4026 77.8862 46.4026 104.805C46.4026 131.723 68.2838 153.602 95.2053 153.602C122.127 153.602 144.008 131.723 144.008 104.805C144.008 77.8862 122.127 56.0073 95.2053 56.0073Z" fill="#29A829"/>
</svg>
