<svg width="371" height="200" viewBox="0 0 371 200" fill="none" xmlns="http://www.w3.org/2000/svg">
<path d="M69.3865 165.325H69.3278C66.3265 165.325 63.923 167.799 63.923 170.85C63.923 173.901 66.3852 176.374 69.3865 176.374C72.3879 176.374 74.8211 173.901 74.8211 170.85C74.8211 167.799 72.3879 165.325 69.3865 165.325Z" fill="#29A829"/>
<path d="M115.857 165.325H115.799C112.797 165.325 110.393 167.799 110.393 170.85C110.393 173.901 112.855 176.374 115.857 176.374C118.858 176.374 121.291 173.901 121.291 170.85C121.291 167.799 118.858 165.325 115.857 165.325Z" fill="#29A829"/>
<path d="M307.538 165.325H307.48C304.479 165.325 302.075 167.799 302.075 170.85C302.075 173.901 304.537 176.374 307.538 176.374C310.539 176.374 312.973 173.901 312.973 170.85C312.973 167.799 310.539 165.325 307.538 165.325Z" fill="#29A829"/>
<path d="M366.006 98.5385L358.699 91.1105L343.979 46.2163C346.175 45.507 347.767 43.4187 347.767 40.9517C347.767 37.9006 345.334 35.4271 342.332 35.4271H289.681V11.4294C289.681 5.12688 284.638 0 278.438 0H11.2431C5.04329 0 0 5.12762 0 11.4294V141.335C0 147.638 5.04329 152.765 11.2431 152.765H17.4254V164.952C17.4254 171.254 22.4687 176.381 28.6685 176.381H41.1833C43.731 189.817 55.3791 200 69.3286 200C78.8804 200 87.3504 195.222 92.5625 187.899C97.7753 195.222 106.245 200 115.797 200C129.747 200 141.395 189.817 143.942 176.381H279.335C281.882 189.817 293.53 200 307.48 200C323.288 200 336.148 186.926 336.148 170.856C336.148 170.73 336.14 170.605 336.139 170.479H359.757C365.957 170.479 371 165.352 371 159.05V110.795C371.001 106.166 369.227 101.813 366.006 98.5385ZM41.1833 165.332H28.6685C28.462 165.332 28.2946 165.162 28.2946 164.952V152.766H46.8772C44.0658 156.365 42.0709 160.649 41.1833 165.332ZM69.3286 188.952C59.5137 188.952 51.5292 180.835 51.5292 170.858C51.5292 160.919 59.4543 152.828 69.2177 152.766H69.4409C79.2043 152.827 87.1294 160.918 87.1294 170.858C87.1286 180.835 79.1434 188.952 69.3286 188.952ZM115.798 188.952C105.983 188.952 97.9978 180.835 97.9978 170.858C97.9978 160.919 105.923 152.828 115.686 152.766H115.909C125.673 152.827 133.598 160.918 133.598 170.858C133.597 180.835 125.613 188.952 115.798 188.952ZM279.335 165.332H143.943C143.056 160.649 141.061 156.364 138.248 152.765H243.586C246.587 152.765 249.02 150.291 249.02 147.24C249.02 144.189 246.587 141.716 243.586 141.716H11.2431C11.0365 141.716 10.8692 141.545 10.8692 141.335V11.4294C10.8692 11.2195 11.0365 11.0493 11.2431 11.0493H278.437C278.644 11.0493 278.811 11.2195 278.811 11.4294V141.716H266.823C263.821 141.716 261.388 144.19 261.388 147.241C261.388 150.292 263.821 152.766 266.823 152.766H285.029C282.217 156.365 280.223 160.649 279.335 165.332ZM348.345 94.4746H313.289C313.083 94.4746 312.915 94.3044 312.915 94.0945V70.0946H340.351L348.345 94.4746ZM307.481 188.952C297.666 188.952 289.681 180.835 289.681 170.858C289.681 160.919 297.606 152.828 307.37 152.766H307.481C307.494 152.766 307.506 152.764 307.519 152.763C317.316 152.784 325.281 160.893 325.281 170.857C325.28 180.835 317.295 188.952 307.481 188.952ZM360.132 159.051C360.132 159.261 359.964 159.431 359.758 159.431H333.851C329.471 149.025 319.301 141.714 307.481 141.714C307.443 141.714 307.407 141.717 307.369 141.717H289.681V46.8587C289.681 46.6487 289.849 46.4756 290.055 46.4756H332.606L336.728 59.0453H307.481C304.479 59.0453 302.046 61.5189 302.046 64.57V94.0945C302.046 100.397 307.089 105.524 313.289 105.524H357.506L358.321 106.352C359.488 107.539 360.132 109.117 360.132 110.796V124.002H353.949C350.948 124.002 348.515 126.476 348.515 129.527C348.515 132.578 350.948 135.051 353.949 135.051H360.132V159.051Z" fill="#29A829"/>
<path d="M261.01 118.089H28.6674C25.666 118.089 23.2328 120.563 23.2328 123.614C23.2328 126.665 25.666 129.139 28.6674 129.139H261.01C264.012 129.139 266.445 126.665 266.445 123.614C266.445 120.563 264.012 118.089 261.01 118.089Z" fill="#29A829"/>
</svg>
