<svg width="200" height="200" viewBox="0 0 200 200" fill="none" xmlns="http://www.w3.org/2000/svg">
<path d="M118.597 100C118.597 110.271 110.271 118.597 100 118.597C89.729 118.597 81.4027 110.271 81.4027 100C81.4027 89.729 89.729 81.4027 100 81.4027C110.271 81.4027 118.597 89.729 118.597 100ZM128.684 100C128.684 84.1583 115.842 71.316 100 71.316C84.1583 71.316 71.316 84.1583 71.316 100C71.316 115.842 84.1583 128.684 100 128.684C115.842 128.684 128.684 115.842 128.684 100Z" fill="#29A829"/>
<path d="M189.913 100C189.913 149.657 149.657 189.913 100 189.913C50.3425 189.913 10.0867 149.658 10.0867 100C10.0867 50.3429 50.3425 10.0867 100 10.0867C149.657 10.0867 189.913 50.3429 189.913 100ZM114.923 173.015C116.158 173.969 117.767 174.295 119.277 173.902C145.962 166.96 166.96 145.962 173.902 119.277C174.295 117.766 173.965 116.158 173.01 114.923C172.055 113.688 170.582 112.963 169.021 112.963H160.599V87.037H169.021C170.582 87.037 172.055 86.3121 173.01 85.0768C173.965 83.8415 174.295 82.2342 173.902 80.723C165.359 47.8862 135.516 23.6407 100 23.6407C64.4842 23.6407 34.6414 47.8862 26.0983 80.723C25.7054 82.2333 26.0311 83.8418 26.9848 85.0768C27.9399 86.3122 29.4177 87.037 30.9791 87.037H39.4011V112.963H30.9791C29.4177 112.963 27.9399 113.688 26.9848 114.923C26.0309 116.158 25.7055 117.767 26.0983 119.277C33.0398 145.962 54.0371 166.96 80.723 173.902C82.2332 174.294 83.8419 173.969 85.0768 173.015C86.3121 172.06 87.037 170.582 87.037 169.021V160.599H112.963V169.021C112.963 170.582 113.688 172.06 114.923 173.015ZM123.05 155.556C123.05 152.77 120.792 150.512 118.006 150.512H81.9937C79.2083 150.512 76.9504 152.77 76.9504 155.556V162.155C58.8931 155.457 44.5433 141.106 37.8448 123.05H44.4444C47.2298 123.05 49.4878 120.792 49.4878 118.006V81.9937C49.4878 79.2083 47.2298 76.9504 44.4444 76.9504H37.8595C47.2244 51.7119 71.5131 33.7273 100 33.7273C128.487 33.7273 152.776 51.7119 162.14 76.9504H155.556C152.77 76.9504 150.512 79.2083 150.512 81.9937V118.006C150.512 120.792 152.77 123.05 155.556 123.05H162.155C155.457 141.106 141.106 155.457 123.05 162.155V155.556ZM200 100C200 44.7722 155.228 0 100 0C44.7718 0 5.19883e-06 44.7722 0 100C0 155.228 44.7718 200 100 200C155.228 200 200 155.228 200 100Z" fill="#29A829"/>
<path d="M114.923 173.015C116.158 173.97 117.763 174.299 119.274 173.907C145.96 166.965 166.96 145.963 173.902 119.277C174.295 117.766 173.965 116.158 173.01 114.923C172.055 113.689 170.583 112.968 169.023 112.968H160.596V87.042H169.023C170.584 87.0417 172.057 86.3168 173.012 85.0818C173.967 83.8467 174.296 82.2388 173.903 80.7279C165.361 47.8905 135.513 23.6456 99.9967 23.6456C64.4813 23.6465 34.6375 47.8911 26.095 80.7279C25.7021 82.2389 26.0315 83.8466 26.9865 85.0818C27.9415 86.3169 29.4145 87.042 30.9758 87.042H39.3978V112.968H30.9758C29.4149 112.968 27.9399 113.689 26.9848 114.923C26.0309 116.158 25.7055 117.767 26.0983 119.277C33.04 145.963 54.038 166.965 80.7247 173.907C82.2353 174.299 83.842 173.97 85.0768 173.015C86.3115 172.06 87.0338 170.587 87.0338 169.026V160.604H112.96V169.026C112.96 170.587 113.688 172.06 114.923 173.015ZM123.046 155.56C123.046 152.775 120.788 150.517 118.003 150.517H81.9904C79.206 150.518 76.9471 152.776 76.9471 155.56V162.16C58.8915 155.462 44.5455 141.11 37.8464 123.055H44.4412C47.226 123.055 49.4836 120.796 49.4845 118.011V81.9986C49.4845 79.2133 47.2265 76.9553 44.4412 76.9553H37.8562C47.2203 51.7164 71.5099 33.7331 99.9967 33.7323C128.484 33.7323 152.778 51.7156 162.142 76.9553H155.552C152.768 76.9563 150.509 79.2139 150.509 81.9986V118.011C150.51 120.795 152.768 123.053 155.552 123.055H162.152C155.452 141.111 141.103 155.462 123.046 162.16V155.56Z" fill="#29A829"/>
<path d="M114.923 173.015C116.158 173.97 117.763 174.299 119.274 173.907C145.96 166.965 166.96 145.963 173.902 119.277C174.295 117.766 173.965 116.158 173.01 114.923C172.055 113.689 170.583 112.968 169.023 112.968H160.596V87.042H169.023C170.584 87.0417 172.057 86.3168 173.012 85.0818C173.967 83.8467 174.296 82.2388 173.903 80.7279C165.361 47.8905 135.513 23.6456 99.9967 23.6456C64.4813 23.6465 34.6375 47.8911 26.095 80.7279C25.7021 82.2389 26.0315 83.8466 26.9865 85.0818C27.9415 86.3169 29.4145 87.042 30.9758 87.042H39.3978V112.968H30.9758C29.4149 112.968 27.9399 113.689 26.9848 114.923C26.0309 116.158 25.7055 117.767 26.0983 119.277C33.04 145.963 54.038 166.965 80.7247 173.907C82.2353 174.299 83.842 173.97 85.0768 173.015C86.3115 172.06 87.0338 170.587 87.0338 169.026V160.604H112.96V169.026C112.96 170.587 113.688 172.06 114.923 173.015ZM123.046 155.56C123.046 152.775 120.788 150.517 118.003 150.517H81.9904C79.206 150.518 76.9471 152.776 76.9471 155.56V162.16C58.8915 155.462 44.5455 141.11 37.8464 123.055H44.4412C47.226 123.055 49.4836 120.796 49.4845 118.011V81.9986C49.4845 79.2133 47.2265 76.9553 44.4412 76.9553H37.8562C47.2203 51.7164 71.5099 33.7331 99.9967 33.7323C128.484 33.7323 152.778 51.7156 162.142 76.9553H155.552C152.768 76.9563 150.509 79.2139 150.509 81.9986V118.011C150.51 120.795 152.768 123.053 155.552 123.055H162.152C155.452 141.111 141.103 155.462 123.046 162.16V155.56Z" fill="#29A829"/>
<path d="M105.91 100C105.91 103.264 103.264 105.91 100 105.91C96.736 105.91 94.0898 103.264 94.0898 100C94.0898 96.736 96.736 94.0898 100 94.0898C103.264 94.0898 105.91 96.736 105.91 100Z" fill="#29A829"/>
<path d="M79.521 116.865C82.3064 116.865 84.5643 114.607 84.5643 111.821C84.5643 109.036 82.3064 106.778 79.521 106.778H44.4442C41.6588 106.778 39.4008 109.036 39.4008 111.821C39.4008 114.607 41.6588 116.865 44.4442 116.865H79.521Z" fill="#29A829"/>
<path d="M79.5214 93.2227C82.3068 93.2227 84.5648 90.9648 84.5648 88.1794C84.5648 85.394 82.3068 83.1361 79.5214 83.1361H44.4446C41.6593 83.1361 39.4013 85.394 39.4013 88.1794C39.4013 90.9648 41.6593 93.2227 44.4446 93.2227H79.5214Z" fill="#29A829"/>
<path d="M155.554 116.865C158.339 116.865 160.597 114.607 160.597 111.821C160.597 109.036 158.339 106.778 155.554 106.778H120.477C117.691 106.778 115.434 109.036 115.434 111.821C115.434 114.607 117.691 116.865 120.477 116.865H155.554Z" fill="#29A829"/>
<path d="M155.553 93.2227C158.339 93.2227 160.597 90.9648 160.597 88.1794C160.597 85.394 158.339 83.1361 155.553 83.1361H120.476C117.691 83.1361 115.433 85.394 115.433 88.1794C115.433 90.9648 117.691 93.2227 120.476 93.2227H155.553Z" fill="#29A829"/>
<path d="M106.777 120.479V155.556C106.777 158.341 109.035 160.599 111.82 160.599C114.606 160.599 116.864 158.341 116.864 155.556V120.479C116.864 117.693 114.606 115.435 111.82 115.435C109.035 115.435 106.777 117.693 106.777 120.479Z" fill="#29A829"/>
<path d="M83.1363 120.479V155.556C83.1363 158.341 85.3943 160.599 88.1797 160.599C90.965 160.599 93.223 158.341 93.223 155.556V120.479C93.223 117.693 90.965 115.435 88.1797 115.435C85.3943 115.435 83.1363 117.693 83.1363 120.479Z" fill="#29A829"/>
</svg>
