<svg width="205" height="200" viewBox="0 0 205 200" fill="none" xmlns="http://www.w3.org/2000/svg">
<path d="M84.4824 78.5931V123.043C84.4824 126.278 87.171 128.903 90.4883 128.903C93.8056 128.903 96.4941 126.278 96.4941 123.043V82.0264H108.506V123.043C108.506 126.278 111.194 128.903 114.512 128.903C117.829 128.903 120.518 126.278 120.518 123.043V78.5931L130.77 68.5906C133.116 66.3017 133.116 62.5922 130.77 60.3033C128.425 58.016 124.622 58.016 122.277 60.3033L112.023 70.3073H92.9767L82.7229 60.3033C80.3784 58.016 76.5763 58.016 74.2302 60.3033C71.8842 62.5922 71.8842 66.3017 74.2302 68.5906L84.4824 78.5931Z" fill="#29A829"/>
<path d="M102.5 200C112.435 200 120.517 192.114 120.517 182.421V175.553C127.509 173.135 132.529 166.622 132.529 158.983V152.083C135.068 151.173 137.396 149.687 139.358 147.684C142.7 144.273 144.541 139.824 144.541 135.154V121.473C144.541 116.921 146.399 112.56 149.771 109.191C161.891 97.0899 168.564 81.1989 168.564 64.4488C168.564 23.8637 130.508 -7.10504 88.4111 1.42032C62.7517 6.61457 42.3177 27.1169 37.5647 52.4382C33.6452 73.3205 40.0483 93.9724 55.1349 109.097C58.568 112.54 60.4589 116.938 60.4589 121.483V135.154C60.4589 139.824 62.2997 144.273 65.642 147.684C67.6033 149.687 69.9322 151.173 72.4706 152.083V158.983C72.4706 166.622 77.4911 173.135 84.4823 175.553V182.421C84.4823 192.114 92.5652 200 102.5 200ZM102.5 188.281C99.1888 188.281 96.494 185.652 96.494 182.421V176.562H108.506V182.421C108.506 185.652 105.811 188.281 102.5 188.281ZM114.512 164.843H90.4882C87.1771 164.843 84.4823 162.213 84.4823 158.983V153.123H120.517V158.983C120.517 162.213 117.823 164.843 114.512 164.843ZM63.7433 100.925C51.4047 88.5539 46.1699 71.6511 49.3809 54.5501C53.2628 33.8707 69.929 17.1297 90.851 12.8938C125.569 5.86534 156.553 31.3712 156.553 64.4488C156.553 78.1211 151.093 91.1022 141.18 101.001C135.601 106.572 132.529 113.842 132.529 121.473V135.154C132.529 138.482 129.722 141.404 126.523 141.404H78.4764C75.278 141.404 72.4706 138.482 72.4706 135.154V121.483C72.4706 113.869 69.3707 106.567 63.7433 100.925Z" fill="#29A829"/>
<path d="M24.4238 64.4461C24.4238 61.2096 21.7353 58.5865 18.418 58.5865H6.00586C2.68856 58.5865 0 61.2096 0 64.4461C0 67.6811 2.68856 70.3057 6.00586 70.3057H18.418C21.7353 70.3057 24.4238 67.6811 24.4238 64.4461Z" fill="#29A829"/>
<path d="M198.994 58.5865H186.582C183.265 58.5865 180.576 61.2096 180.576 64.4461C180.576 67.6811 183.265 70.3057 186.582 70.3057H198.994C202.311 70.3057 205 67.6811 205 64.4461C205 61.2096 202.311 58.5865 198.994 58.5865Z" fill="#29A829"/>
<path d="M22.2827 116.396L32.685 110.537C35.5581 108.919 36.5419 105.335 34.884 102.533C33.2246 99.7301 29.5523 98.7703 26.6792 100.388L16.2768 106.247C13.4053 107.866 12.4199 111.449 14.0794 114.252C15.7435 117.063 19.4189 118.009 22.2827 116.396Z" fill="#29A829"/>
<path d="M190.921 14.6398C189.261 11.8367 185.589 10.8769 182.717 12.4943L172.315 18.3539C169.442 19.9714 168.458 23.5558 170.116 26.3589C171.78 29.1697 175.456 30.1158 178.321 28.5029L188.723 22.6433C191.595 21.0258 192.58 17.4414 190.921 14.6398Z" fill="#29A829"/>
<path d="M32.6866 18.3539L22.2842 12.4943C19.4111 10.8753 15.7372 11.8367 14.0794 14.6398C12.4215 17.4414 13.4053 21.0258 16.2784 22.6433L26.6807 28.5029C29.5398 30.1142 33.2183 29.1727 34.884 26.3589C36.5435 23.5558 35.5581 19.9714 32.6866 18.3539Z" fill="#29A829"/>
<path d="M170.116 102.533C168.457 105.335 169.442 108.919 172.313 110.537L182.716 116.396C185.576 118.008 189.255 117.066 190.921 114.252C192.578 111.449 191.595 107.865 188.722 106.247L178.319 100.388C175.446 98.7688 171.775 99.7301 170.116 102.533Z" fill="#29A829"/>
</svg>
