<svg width="219" height="200" viewBox="0 0 219 200" fill="none" xmlns="http://www.w3.org/2000/svg">
<path d="M142.588 45.556L137.245 26.1725C136.332 22.8606 133.291 20.5506 129.853 20.5506H89.1579C85.7195 20.5506 82.6789 22.8642 81.7664 26.1725L76.4226 45.556C71.3635 46.1099 67.3959 50.3546 67.3959 55.5502V80.5411C67.3959 83.711 69.4837 86.3744 72.3454 87.3144V95.1771C72.3454 98.653 75.1779 101.48 78.6601 101.48H87.1321C90.6143 101.48 93.4468 98.653 93.4468 95.1771V87.7006H125.561V95.1771C125.561 98.653 128.393 101.48 131.875 101.48H140.347C143.829 101.48 146.662 98.653 146.662 95.1771V87.3144C149.527 86.3744 151.611 83.711 151.611 80.5411V55.5502C151.611 50.3546 147.651 46.1099 142.588 45.556ZM88.8038 28.1036C88.8476 27.9469 88.9936 27.834 89.1579 27.834H129.853C130.017 27.834 130.163 27.9433 130.207 28.1036L134.989 45.4431H84.0258L88.8038 28.1036ZM74.6961 55.5502C74.6961 53.9981 75.9627 52.7338 77.5176 52.7338H141.49C143.045 52.7338 144.311 53.9981 144.311 55.5502L144.439 80.4136H129.207C129.156 80.4136 129.116 80.4391 129.068 80.4427H127.05V78.4607C127.05 73.5273 123.027 69.5122 118.085 69.5122H100.919C95.9763 69.5122 91.9539 73.5273 91.9539 78.4607V80.512H90.2894C90.1215 80.4901 89.9719 80.4172 89.7966 80.4172H75.9955C75.7729 80.4172 75.5794 80.5047 75.3677 80.5448H74.6961V55.5502ZM99.2578 80.4136V78.4607C99.2578 77.5461 100.006 76.7992 100.922 76.7992H118.089C119.005 76.7992 119.753 77.5461 119.753 78.4607V80.4136H99.2578ZM86.1502 94.1934H79.6493V87.7006H86.1502V94.1934ZM139.365 94.1934H132.864V87.7006H139.365V94.1934Z" fill="#29A829"/>
<path d="M83.0111 65.2821H89.136C91.1508 65.2821 92.7861 63.6498 92.7861 61.6385C92.7861 59.6273 91.1508 57.995 89.136 57.995H83.0111C80.9962 57.995 79.3609 59.6273 79.3609 61.6385C79.3609 63.6498 80.9962 65.2821 83.0111 65.2821Z" fill="#29A829"/>
<path d="M129.871 65.2821H135.996C138.011 65.2821 139.646 63.6498 139.646 61.6385C139.646 59.6273 138.011 57.995 135.996 57.995H129.871C127.856 57.995 126.221 59.6273 126.221 61.6385C126.221 63.6498 127.856 65.2821 129.871 65.2821Z" fill="#29A829"/>
<path d="M207.378 0.00364325H11.6658C5.23427 0.00364325 0 5.21388 0 11.6155V151.177C0 157.579 5.23427 162.789 11.6658 162.789H78.547L62.6616 194.735C62.0995 195.865 62.1616 197.205 62.8259 198.277C63.4939 199.348 64.6656 200 65.9285 200H153.09C154.353 200 155.524 199.348 156.192 198.277C156.857 197.205 156.922 195.865 156.357 194.735L140.471 162.789H207.371C213.784 162.789 219 157.579 219 151.177V11.6119C219 5.21023 213.784 0 207.371 0L207.378 0.00364325ZM7.30024 11.6119C7.30024 9.22903 9.26036 7.28704 11.6658 7.28704H207.378C209.765 7.28704 211.707 9.22539 211.707 11.6119V114.745H7.30024V11.6119ZM147.209 192.709H71.8198L86.6977 162.789H132.328L147.209 192.709ZM211.707 151.177C211.707 153.56 209.765 155.502 207.378 155.502H134.627L134.591 155.498H84.4383L84.4018 155.502H11.6658C9.26036 155.502 7.30024 153.563 7.30024 151.177V122.032H211.707V151.177Z" fill="#29A829"/>
</svg>
