<svg width="225" height="200" viewBox="0 0 225 200" fill="none" xmlns="http://www.w3.org/2000/svg">
<path d="M112.202 24.907C112.201 16.4113 105.31 9.52397 96.8075 9.52383C88.3051 9.52383 81.4138 16.4109 81.4129 24.907C81.4129 27.5364 79.2784 29.6679 76.6474 29.669C74.0155 29.669 71.882 27.537 71.882 24.907C71.8829 11.1509 83.0415 0 96.8075 0C110.574 0.000142349 121.732 11.1515 121.733 24.907C121.733 38.8568 110.418 50.1666 96.4585 50.1675H4.76545C2.13356 50.1675 0 48.0355 0 45.4056C2.45613e-05 42.7757 2.13358 40.6437 4.76545 40.6437H96.4585C105.155 40.6428 112.202 33.5969 112.202 24.907Z" fill="#29A829"/>
<path d="M177.071 51.9796C177.07 43.4841 170.178 36.597 161.676 36.5964C153.174 36.5964 146.278 43.4834 146.277 51.9796C146.277 54.6095 144.143 56.7415 141.512 56.7415C138.881 56.7405 136.746 54.6089 136.746 51.9796C136.747 38.2234 147.91 27.0725 161.676 27.0725C175.442 27.0731 186.601 38.2244 186.602 51.9796C186.602 65.9299 175.283 77.2401 161.323 77.2401H4.76545C2.13356 77.2401 0 75.1081 0 72.4781C2.94735e-05 69.8482 2.13358 67.7162 4.76545 67.7162H161.323C170.019 67.7162 177.071 60.67 177.071 51.9796Z" fill="#29A829"/>
<path d="M51.639 19.1277C51.639 22.8283 48.6368 25.8283 44.9334 25.8283C41.2301 25.8283 38.2279 22.8283 38.2279 19.1277C38.2279 15.4271 41.2301 12.4272 44.9334 12.4272C48.6368 12.4272 51.639 15.4271 51.639 19.1277Z" fill="black"/>
<path d="M46.8746 19.1283C46.8746 18.0578 46.0052 17.1894 44.934 17.1891C43.8625 17.1891 42.9934 18.0576 42.9934 19.1283C42.9937 20.1987 43.8627 21.0674 44.934 21.0674C46.005 21.0671 46.8743 20.1985 46.8746 19.1283ZM56.4055 19.1283C56.4052 25.4584 51.2688 30.591 44.934 30.5913C38.5989 30.5913 33.4628 25.4586 33.4625 19.1283C33.4625 12.7977 38.5987 7.66526 44.934 7.66526C51.269 7.66555 56.4055 12.7979 56.4055 19.1283Z" fill="#29A829"/>
<path d="M87.4442 175.093C87.4442 172.463 89.5781 170.331 92.2096 170.331C94.8415 170.331 96.9751 172.463 96.9751 175.093C96.9759 183.589 103.872 190.476 112.374 190.476C120.876 190.475 127.768 183.588 127.769 175.093C127.769 166.403 120.718 159.356 112.021 159.356H4.76545C2.13356 159.356 0 157.224 0 154.594C0 151.964 2.13356 149.832 4.76545 149.832H112.021C125.981 149.832 137.3 161.143 137.3 175.093C137.299 188.848 126.14 199.999 112.374 200C98.6083 200 87.445 188.849 87.4442 175.093Z" fill="#29A829"/>
<path d="M51.3961 175.541C54.028 175.541 56.1616 177.673 56.1616 180.303C56.1616 182.933 54.028 185.065 51.3961 185.065H4.76545C2.13356 185.065 0 182.933 0 180.303C0 177.673 2.13356 175.541 4.76545 175.541H51.3961Z" fill="#29A829"/>
<path d="M215.469 140.436C215.469 121.128 199.805 105.475 180.482 105.475H9.5309V122.593H179.477C189.646 122.593 197.891 130.829 197.892 140.99C197.892 151.151 189.646 159.391 179.477 159.391H175.284C170.861 159.392 167.275 162.974 167.275 167.394C167.275 171.814 170.861 175.396 175.284 175.397H180.482C199.805 175.397 215.469 159.745 215.469 140.436ZM225 140.436C225 165.005 205.069 184.921 180.482 184.921H175.284C165.597 184.92 157.744 177.074 157.744 167.394C157.744 157.714 165.597 149.868 175.284 149.867H179.477C184.382 149.867 188.361 145.892 188.361 140.99C188.36 136.088 184.382 132.117 179.477 132.117H4.76545C2.13394 132.117 0.000609017 129.984 0 127.355V100.713C0 98.0833 2.13356 95.9513 4.76545 95.9513H180.482C205.069 95.9513 224.999 115.868 225 140.436Z" fill="#29A829"/>
<path d="M208.975 73.4356C208.975 77.1362 205.973 80.1361 202.269 80.1361C198.566 80.1361 195.564 77.1362 195.564 73.4356C195.564 69.735 198.566 66.735 202.269 66.735C205.973 66.735 208.975 69.735 208.975 73.4356Z" fill="black"/>
<path d="M204.21 73.4361C204.21 72.3656 203.341 71.4972 202.27 71.4969C201.198 71.4969 200.329 72.3654 200.329 73.4361C200.33 74.5065 201.199 75.3753 202.27 75.3753C203.341 75.375 204.21 74.5064 204.21 73.4361ZM213.741 73.4361C213.741 79.7662 208.605 84.8988 202.27 84.8991C195.935 84.8991 190.799 79.7664 190.798 73.4361C190.798 67.1056 195.935 61.9731 202.27 61.9731C208.605 61.9734 213.741 67.1057 213.741 73.4361Z" fill="#29A829"/>
</svg>
