<svg width="84" height="84" viewBox="0 0 84 84" fill="none" xmlns="http://www.w3.org/2000/svg">
<path d="M71.7588 12.2222C67.8883 8.33345 63.2787 5.25007 58.1985 3.15174C53.1184 1.05341 47.6693 -0.0179053 42.1688 0.000226359C19.1216 0.000226359 0.337689 18.6902 0.337689 41.6221C0.337689 48.9721 2.2794 56.1121 5.90955 62.4121L0 84L22.1608 78.204C28.2814 81.522 35.1618 83.286 42.1688 83.286C65.2161 83.286 84 64.5961 84 41.6641C84 30.5341 79.6523 20.0762 71.7588 12.2222ZM42.1688 76.23C35.9216 76.23 29.801 74.55 24.4402 71.4L23.1739 70.644L10.004 74.088L13.5075 61.3201L12.6633 60.0181C9.19166 54.5037 7.34863 48.129 7.34472 41.6221C7.34472 22.5542 22.9628 7.01421 42.1266 7.01421C51.4131 7.01421 60.1507 10.6262 66.6935 17.1782C69.9337 20.3864 72.5014 24.2028 74.2477 28.4061C75.9939 32.6094 76.884 37.1159 76.8663 41.6641C76.9508 60.7321 61.3327 76.23 42.1688 76.23ZM61.2482 50.3581C60.193 49.8541 55.0432 47.3341 54.1146 46.9561C53.1437 46.6201 52.4683 46.4521 51.7507 47.4601C51.0332 48.5101 49.0492 50.8621 48.4583 51.5341C47.8673 52.2481 47.2342 52.3321 46.1789 51.7861C45.1236 51.2821 41.7467 50.1481 37.7789 46.6201C34.6553 43.8481 32.5869 40.4461 31.9538 39.3961C31.3628 38.3461 31.8693 37.8001 32.4181 37.2541C32.8824 36.7921 33.4734 36.0361 33.9799 35.4481C34.4864 34.8601 34.6975 34.3981 35.0352 33.7261C35.3729 33.0121 35.204 32.4241 34.9507 31.9201C34.6975 31.4161 32.5869 26.2922 31.7427 24.1922C30.8985 22.1762 30.0121 22.4282 29.3789 22.3862H27.3528C26.6352 22.3862 25.5377 22.6382 24.5668 23.6882C23.6382 24.7382 20.9367 27.2582 20.9367 32.3821C20.9367 37.5061 24.6935 42.4621 25.2 43.1341C25.7065 43.8481 32.5869 54.3481 43.0553 58.8421C45.5457 59.9341 47.4874 60.5641 49.007 61.0261C51.4975 61.8241 53.7769 61.6981 55.592 61.4461C57.6181 61.1521 61.797 58.9261 62.6412 56.4901C63.5276 54.0541 63.5276 51.9961 63.2322 51.5341C62.9367 51.0721 62.3035 50.8621 61.2482 50.3581Z" fill="white"/>
</svg>
